<?xml version="1.0" encoding="utf-8"?>
<!-- Generator: Adobe Illustrator 23.0.1, SVG Export Plug-In . SVG Version: 6.00 Build 0)  -->
<svg version="1.1" id="logotype" xmlns="http://www.w3.org/2000/svg" xmlns:xlink="http://www.w3.org/1999/xlink" x="0px" y="0px"
	 viewBox="0 0 131 57" style="enable-background:new 0 0 131 57;" xml:space="preserve" width="130px">
<style type="text/css">
	.st0{fill-rule:evenodd;clip-rule:evenodd;fill:#FFFFFF;}
	.st1{fill:#FFFFFF;}
	.st2{font-family:'Rubik-Light';}
	.st3{font-size:42.0075px;}
</style>
<path id="logo" class="st0" d="M105.2-1c1,0.2,1.9,0.7,2.6,1.4c1,1,1.7,2.3,2.1,3.6c0.7,2.2,0.7,4.6,0,6.8c-1,3.9-2.3,7.7-3.7,11.4
	c-0.5,1.2-1,2.4-1.4,3.6c0,0.1-0.1,0.2-0.1,0.3c-0.2-0.5-0.4-1-0.6-1.5c-1.7-4.2-3.2-8.5-4.4-12.8C99.1,10,98.9,8.1,99,6.2
	c0.2-2,0.9-3.8,2.1-5.3c0.8-1,1.8-1.6,3.1-1.8c0,0,0.1,0,0.1,0L105.2-1L105.2-1z M102.4,31c4.9,0.6,9.8,1.5,14.6,2.7
	c1.4,0.3,2.8,0.8,4.1,1.5c2.1,1,3.7,2.8,4.7,4.9c0.6,1.2,0.7,2.6,0.3,3.9c-0.5,1.4-1.7,2.4-3.1,2.7c-2,0.5-4.1,0.3-5.9-0.5
	c-1.8-0.8-3.4-1.9-4.7-3.3c-3.6-3.7-6.9-7.5-10-11.6C102.4,31.1,102.4,31.1,102.4,31L102.4,31z M99,28.6c0,0.8,0.1,1.5,0.1,2.3
	c0,3,0.1,6,0,9c0,2.5-0.2,5-0.8,7.4c-0.6,2.7-2.3,5-4.8,6.4c-1.3,0.9-3.1,0.9-4.4,0.1c-1-0.6-1.8-1.6-2.1-2.8
	c-0.6-1.9-0.6-3.9-0.1-5.8c0.5-1.8,1.4-3.5,2.6-5c2.7-3.7,5.6-7.2,8.6-10.6C98.4,29.3,98.7,29,99,28.6L99,28.6z M102.9,24.8
	c-0.7-0.4-1.3-0.7-2-1.1c-3.8-2-7.5-4.2-11-6.6c-0.8-0.6-1.6-1.2-2.4-1.9c-1.9-1.7-3.2-4-3.5-6.6c-0.3-1.6,0.2-3.2,1.3-4.3
	c1-0.9,2.3-1.4,3.6-1.2c2.3,0.3,4.4,1.4,6,3.2c1,1.1,1.8,2.4,2.4,3.7c1.8,3.9,3.4,8,4.7,12.1C102.4,23,102.7,23.9,102.9,24.8
	L102.9,24.8z M100.8,25c-1,0.2-1.8,0.4-2.7,0.6c-3,0.5-6,1.1-9.1,1.5c-2.2,0.4-4.3,0.5-6.5,0.4c-2.9-0.1-5.6-1.5-7.5-3.7
	c-1.5-1.8-1.3-4.5,0.5-6.1c0.2-0.1,0.4-0.3,0.6-0.4c1.6-1,3.5-1.6,5.4-1.5c1.9,0.1,3.7,0.5,5.4,1.3c3.3,1.5,6.5,3.2,9.6,5.1
	c1.3,0.8,2.6,1.6,4,2.4C100.6,24.8,100.7,24.9,100.8,25L100.8,25z M105.2,28.2c0.3-0.8,0.5-1.6,0.7-2.3c1.2-3.6,2.5-7.2,4-10.6
	c0.7-1.5,1.4-3,2.3-4.4c1.3-2,3.2-3.4,5.5-4.1c1.2-0.4,2.4-0.4,3.6,0c1.6,0.6,2.7,2,2.8,3.7c0.2,2.2-0.5,4.5-1.8,6.2
	c-1.1,1.5-2.5,2.8-4.1,3.8c-3.3,2.3-6.8,4.4-10.4,6.3c-0.8,0.4-1.5,0.8-2.3,1.2C105.5,28.1,105.4,28.1,105.2,28.2L105.2,28.2z
	 M104.3,30.1c0.8-0.5,1.5-1,2.3-1.4c3.3-2,6.6-3.9,10-5.6c1.5-0.8,3-1.4,4.6-1.8c2.6-0.7,5.3-0.3,7.6,1.1c1.1,0.6,1.9,1.8,2.2,3
	c0.2,1.5-0.3,2.9-1.3,4c-1.3,1.5-3.1,2.5-5,3c-1.5,0.4-3.1,0.5-4.6,0.3c-3.2-0.3-6.5-0.7-9.7-1.3c-1.9-0.4-3.9-0.8-5.8-1.2
	C104.5,30.2,104.4,30.2,104.3,30.1L104.3,30.1z M99.3,26.5c-0.6,0.8-1.1,1.5-1.7,2.2c-2.1,2.5-4.3,5.1-6.5,7.6
	c-1.3,1.5-2.7,2.9-4.3,4c-2,1.5-4.5,2.2-7,2c-1.4,0-2.8-0.7-3.7-1.8c-0.9-1.2-1.1-2.7-0.6-4.1c0.6-1.9,1.8-3.6,3.5-4.7
	c1.4-1.1,3.1-1.8,4.8-2.2c2.7-0.6,5.3-1.3,8-1.8c2.4-0.5,4.7-0.8,7.1-1.1C99,26.5,99.1,26.5,99.3,26.5z M100.3,30.5
	c0.7,0.8,1.4,1.6,2.1,2.4c2.4,2.8,4.8,5.6,6.9,8.5c1.1,1.3,1.9,2.8,2.6,4.3c0.9,2.1,1,4.5,0.4,6.7c-0.3,1.4-1.2,2.5-2.4,3.2
	c-1.4,0.7-3,0.6-4.2-0.2c-1.7-1-3.1-2.5-3.9-4.2c-0.7-1.5-1.2-3.2-1.3-4.8c-0.3-3.6-0.5-7.1-0.4-10.7c0-1.6,0.1-3.3,0.1-4.9
	C100.2,30.7,100.2,30.6,100.3,30.5C100.3,30.5,100.3,30.5,100.3,30.5z"/>
<text transform="matrix(1 0 0 1 -0.3643 42.3633)" class="st1 st2 st3">לֶמֵס</text>
</svg>
