<?xml version="1.0" standalone="no"?>
<!DOCTYPE svg PUBLIC "-//W3C//DTD SVG 1.1//EN" "http://www.w3.org/Graphics/SVG/1.1/DTD/svg11.dtd" >
<svg xmlns="http://www.w3.org/2000/svg" xmlns:xlink="http://www.w3.org/1999/xlink" version="1.1">
<metadata>
Created by FontForge 20170731 at Tue May  2 17:54:03 2000
 By Aleksey,,,
Koby Harati(c) Dec 1999 
</metadata>
<defs>
<font id="Koby" horiz-adv-x="2048" >
  <font-face 
    font-family="Koby"
    font-weight="7"
    font-stretch="normal"
    units-per-em="2048"
    panose-1="0 0 0 0 0 0 0 0 0 0"
    ascent="1638"
    descent="-410"
    bbox="-54 -748 2537.76 2100"
    underline-thickness="150"
    underline-position="-442"
    unicode-range="U+0020-FB4F"
  />
<missing-glyph horiz-adv-x="1024" 
d="M128 0v2100h768v-2100h-768zM256 128h512v1844h-512v-1844z" />
    <glyph glyph-name=".notdef" horiz-adv-x="1024" 
d="M128 0v2100h768v-2100h-768zM256 128h512v1844h-512v-1844z" />
    <glyph glyph-name=".null" horiz-adv-x="0" 
 />
    <glyph glyph-name="nonmarkingreturn" horiz-adv-x="453" 
 />
    <glyph glyph-name="space" unicode=" " horiz-adv-x="453" 
 />
    <glyph glyph-name="exclam" unicode="!" horiz-adv-x="380" 
d="M292 928q-26 -199 -13 -407q6 -96 6 -165q0 -79 -8 -121q-24 -128 -80 -128q-28 0 -69 30q-69 51 -105 465q-15 175 -15 298q0 186 31 293q52 178 174 187q62 4 90 -27.5t24 -94.5q-8 -126 -35 -330zM310 -1q61 -63 61 -105q0 -34 -63 -99q-50 -51 -100 -51q-51 0 -99 50
t-48 101q0 52 49.5 103t101.5 51q49 0 98 -50z" />
    <glyph glyph-name="quotedbl" unicode="&#x22;" horiz-adv-x="669" 
d="M571 1637q-109 -91 -224 -262q-40 -60 -42 -106t37 -80q27 -24 76 -24q22 0 49 5q80 15 131 126q24 62 75 184q15 31 45 92q27 57 31 96q5 55 -51 55q-28 0 -68 -33q-30 -26 -59 -53zM250 1665q-68 -56 -151 -176q-30 -43 -56 -112q-11 -29 -11 -55q0 -32 21 -56
q37 -41 72 -41q73 1 143 77q37 41 69 115q33 83 111 244q19 34 19 63q0 63 -65 68q-49 4 -74 -39.5t-78 -87.5z" />
    <glyph glyph-name="numbersign" unicode="#" 
 />
    <glyph glyph-name="dollar" unicode="$" 
 />
    <glyph glyph-name="percent" unicode="%" 
 />
    <glyph glyph-name="ampersand" unicode="&#x26;" 
 />
    <glyph glyph-name="quotesingle" unicode="'" horiz-adv-x="553" 
d="M479 1548q-140 -54 -258 -174q-57 -58 -94 -145q-22 -52 -22 -93q0 -27 11 -52q25 -57 71 -60q34 -2 44 -2t43 2q28 2 101 92q88 109 104 122q84 85 211 204q42 39 42 79q0 41 -45 58q-26 10 -56 10q-45 0 -152 -41z" />
    <glyph glyph-name="parenleft" unicode="(" 
 />
    <glyph glyph-name="parenright" unicode=")" 
 />
    <glyph glyph-name="asterisk" unicode="*" 
 />
    <glyph glyph-name="plus" unicode="+" 
 />
    <glyph glyph-name="comma" unicode="," horiz-adv-x="402" 
d="M299 273q-34 1 -51 -3q-57 -13 -72 -90q-6 -35 -17 -103.5t-29 -97.5q-30 -49 -104 -54q-23 -2 -23 -21q0 -7 2 -14q10 -33 77 -40q10 -1 23 -1q115 0 206 104q44 50 55 144q4 33 4 56q0 118 -71 120z" />
    <glyph glyph-name="hyphen" unicode="-" 
 />
    <glyph glyph-name="period" unicode="." horiz-adv-x="510" 
 />
    <glyph glyph-name="slash" unicode="/" horiz-adv-x="536" 
d="M444 1751q-32 -10 -76 -33q-22 -11 -88 -427q-21 -156 -72 -467q-78 -409 -198 -865q-64 -242 -64 -340q0 -46 13 -61q24 -28 65 -28q31 0 70 16q101 41 186 415q30 156 96 467q138 609 160 796l44 371q3 25 3 43q0 84 -49 101q-41 14 -69 14q-12 0 -21 -2z" />
    <glyph glyph-name="zero" unicode="0" horiz-adv-x="1156" 
d="M265 407q19 -40 31 -121q16 -106 70 -131q32 -15 79 -15q31 0 71 7q126 22 221 161q75 109 113 258q42 164 42 271q0 145 -51 179q-23 15 -60 15q-29 0 -68 -9q-97 -23 -202 -135q-86 -93 -141 -202q-79 -159 -105 -278zM789 15q-66 -46 -129 -65q-45 -14 -138 -26
q-38 -5 -74 -5q-118 0 -199 60q-100 75 -121 146q-11 -3 -21 -3q-72 0 -78 159q-9 232 111 472q118 235 308 377q173 129 337 129q40 0 70 -5q197 -33 248 -204q25 -84 25 -191t-25 -231q-93 -460 -314 -613z" />
    <glyph glyph-name="one" unicode="1" horiz-adv-x="422" 
d="M59 967q12 177 32 234q28 80 130 80q28 0 56 -11q52 -21 52 -85q0 -19 -3 -36q-16 -91 -31 -360q-10 -181 -10 -320q0 -71 4 -171q5 -124 5 -235q0 -52 -2 -92q-5 -102 -68 -106q-93 -5 -146 260q-37 185 -37 331q0 250 18 511z" />
    <glyph glyph-name="two" unicode="2" horiz-adv-x="1054" 
d="M543 1308q-127 -7 -253 -73q-84 -44 -119 -79q-47 -47 -57 -124q-8 -58 108 -65q14 -1 80 53q73 60 175 74q73 10 131 10q148 0 148 -56q0 -43 -57 -122q-186 -256 -589 -672q-80 -83 -78 -153q4 -105 157 -130q11 -2 234 -8q71 -2 117 -2q414 0 397 118q-11 77 -60 94
q-24 8 -125 6q-134 -3 -286 -3q-170 0 -143 3q31 3 226 231q146 170 224 269q233 296 233 437q0 46 -24 76q-50 63 -180 93q-104 24 -208 24q-34 0 -51 -1z" />
    <glyph glyph-name="three" unicode="3" horiz-adv-x="1102" 
d="M223 1227q114 57 305 76q62 6 124 6q267 0 357 -142q20 -31 20 -73q1 -72 -56 -172q-91 -161 -214 -190q-10 -2 -30 -7l14 -2q324 -46 337 -245q1 -15 1 -33q0 -105 -43 -214q-56 -141 -202 -205q-112 -49 -310 -65q-38 -2 -82 -2q-237 0 -364 110q-58 50 -51 125
q4 41 8 58q10 44 28 47q44 8 104 -37q76 -57 103 -65q77 -24 169 -24q61 0 127 9q174 24 247 141q41 66 41 113q0 34 -23 57q-46 46 -172 80q-119 33 -191 25q-32 -3 -97 -12q-45 -6 -80 46q-32 46 -30 93q1 43 60 57q16 2 97 9q199 17 317 138q37 38 37 68q0 72 -220 82
q-99 4 -164 -19q-28 -10 -80 -45q-36 -25 -73 -25q-52 -1 -89.5 37t-38.5 90q0 31 13 46q22 24 101 64z" />
    <glyph glyph-name="four" unicode="4" horiz-adv-x="814" 
d="M103 1102q17 110 16 140q-3 92 54 118q26 12 52 12q65 0 99 -47q4 -6 4 -28q0 -103 -93 -668q31 2 69 2q78 0 184 -6q-1 40 -1 81q0 75 9 225q1 44 4 131q5 93 41 116q24 16 56 16q16 0 31 -3q52 -11 59 -38q2 -8 2 -30q0 -44 -8 -123q-4 -39 -4 -82q0 -122 24 -327
q58 -27 53 -72q-5 -39 -42 -53q2 -17 7 -57q17 -169 51 -284q16 -55 16 -97q0 -102 -95 -102q-10 0 -23 2q-62 9 -82 45q-9 16 -24 95q-47 245 -59 371q-13 -1 -56 -4l-280 -19q-51 -3 -112 74q-45 57 -45 95q0 12 5 23q22 48 50 235q12 86 38 259z" />
    <glyph glyph-name="five" unicode="5" horiz-adv-x="1135" 
d="M302 724q-45 -3 -100 0q-179 11 -169 113q15 153 322 312q185 96 355 140q116 30 172 30q25 0 35 -5q105 -50 100 -97q-1 -10 -1 -28q0 -17 1 -28q3 -28 -174 -68q-149 -34 -349 -137q465 -16 544 -169q42 -82 42 -179q0 -101 -48 -214q-178 -419 -618 -419q-43 0 -58 1
q-233 15 -290 128q-24 47 -24 69q0 23 22 23q9 0 25 -5q78 -25 113 -21q32 3 109 12l157 19q114 14 208 117q87 95 114 213q8 34 8 68q0 140 -260 140q-32 0 -59 -2z" />
    <glyph glyph-name="six" unicode="6" horiz-adv-x="775" 
d="M280 637q-6 -66 -6 -121q0 -90 19 -150q53 -168 101 -168q31 0 71 54q58 78 81 183q11 50 11 94t-11 72q-24 60 -140 52q-73 -5 -126 -16zM399 1454q90 58 141 55q79 -5 94 -79q2 -10 2 -25q0 -17 -7 -27q-11 -15 -147 -168q-113 -127 -165 -345q48 21 109 21
q80 0 174 -38q126 -51 155 -215q9 -51 9 -105q0 -120 -45 -256q-65 -196 -192 -269q-70 -40 -142 -40q-60 0 -120 27q-133 60 -194 285q-42 155 -42 316q0 75 9 152q21 183 118 390q110 235 243 321z" />
    <glyph glyph-name="seven" unicode="7" horiz-adv-x="944" 
d="M422 678l166 9q17 102 17 160q0 112 -69 143q-16 7 -50 7q-82 0 -229 -46q-101 -32 -136 -30q-53 2 -83 41q-29 36 -27 90q2 62 85 109q44 25 72 37q103 44 282 48q150 3 305 -71q82 -39 99 -180q7 -57 -1 -216q0 -9 -6 -85q79 -2 79 -52q0 -106 -102 -140
q-11 -65 -25 -115q-35 -127 -116 -253q-99 -153 -198 -184q-36 -11 -64 -11q-27 0 -40 14q-6 7 -6 21q0 48 61 180q70 153 109 317q-38 1 -89 4q-106 6 -199 29q-158 38 -148 101q7 43 77 53q81 12 236 20z" />
    <glyph glyph-name="eight" unicode="8" horiz-adv-x="1055" 
d="M592 531q-123 -105 -163 -148q-86 -92 -109 -186q-6 -25 -6 -41q1 -73 76 -118q33 -20 79 -20q85 0 211 67q107 57 107 143q0 91 -195 303zM267 1064q15 -11 48 -32q89 -57 167 -136q32 -32 85 -78l11 11q142 142 147 167q3 16 -288 50q-85 10 -170 18zM109 1258
q21 10 89 10q63 0 160 -9l276 -27q138 -21 205 -59q100 -58 100 -172q0 -26 -2 -41q-15 -113 -99 -204q-37 -40 -85 -86q148 -123 237 -314q41 -88 41 -164q0 -104 -77 -186q-134 -143 -336 -193q-60 -15 -116 -15q-137 0 -260 86q-173 121 -162 267q12 158 91 276
q60 89 203 215l42 37q-25 21 -76 64q-67 54 -199 164q-126 111 -128 201q-5 9 -5 24q-2 60 25 83q16 14 76 43z" />
    <glyph glyph-name="nine" unicode="9" horiz-adv-x="1027" 
d="M718 687q15 100 15 173q0 152 -75 182q-33 13 -63 13q-50 0 -94 -36q-103 -84 -103 -170q0 -99 133 -138q79 -23 164 -23q12 0 23 -1zM375 133q164 57 277 318l-10 2q-196 39 -261 75q-119 66 -166 206q-22 66 -22 124q0 77 38 147q63 116 130 173q79 67 197 88
q33 6 73 6q78 0 153 -29q181 -70 181 -411q0 -83 -10 -174q-49 -444 -354 -672q-143 -107 -310 -116t-229 66q-39 47 -39 80q0 65 158 78q108 9 194 39z" />
    <glyph glyph-name="colon" unicode=":" 
 />
    <glyph glyph-name="semicolon" unicode=";" 
 />
    <glyph glyph-name="less" unicode="&#x3c;" horiz-adv-x="2262" 
d="M1712 -260q-1 -66 36 -130q31 -53 36 -53q1 1 1 2q0 11 -32 86q-18 41 -41 95zM754 35q14 1 46 5q180 25 219 175q11 42 11 72q0 83 -77 92q-8 1 -25 1q-90 0 -163 -79q-50 -54 -72 -103l2 -5q20 -50 8 -108q18 -22 51 -50zM1509 285q114 281 164 552q21 113 21 196
q0 179 -104 192q-152 20 -166 -351q-3 -78 -3 -136q0 -260 49 -369q24 -53 39 -84zM1889 662q-17 -3 -48 21q-16 12 -16 26q0 16 18 35q35 37 98 42q73 5 149.5 -44t89.5 -119q8 -41 8 -93q0 -33 -4 -68q-7 -62 -101 -160q-49 -52 -140 -145q-171 -220 -214 -331
q20 -44 41 -94q103 -245 100 -290q-2 -38 -42 -38q-11 0 -17 1q-56 9 -112 227q-25 96 -20 179q-30 64 -58 119q-44 87 -101 232q-76 -185 -118 -271q-52 -105 -215 -127q-29 -4 -55 -4q-139 0 -293 91q-146 86 -156 153q-129 11 -227 36q-57 15 -83 36q-12 10 -19 10
q-9 0 -10 -15q-8 -89 -115 -89q-19 0 -32 1q-163 13 -163 230q0 135 9 169q21 79 111 121q104 48 158 41q45 -6 116 -51q79 -50 79 -90q0 -26 -26 -26q-19 0 -44 41q-31 51 -151 46q-112 -5 -168 -91q-50 -75 -47 -192q2 -103 75 -151q23 -15 44 -15q52 0 107 81
q61 89 83 89q7 0 10 -6q15 -32 122 -98q71 -44 173 -48q7 17 18 52q-26 32 -25 55q2 29 15 58q-6 20 -6 41q0 56 45 118q63 87 156 102q32 5 63 5q128 0 136 -102q2 -26 2 -54q0 -47 -4 -90q-11 -122 -166 -183q-77 -30 -123 -34q219 -167 334 -167q171 0 294 257
q33 68 66 148q-11 28 -30 81q-96 263 -103 688q-3 184 142 244q60 25 108 25q124 0 141 -154q2 -17 2 -45q0 -114 -48 -334q-72 -330 -156 -519l-4 -9q22 -44 57 -111q39 -75 96 -200q15 54 43 98q47 75 149 202q110 137 151 200q34 53 34 120q0 24 -2 39q-16 122 -181 98z
M429 663q5 25 64 15q51 -8 87 -93q30 -70 30 -132q0 -12 -7 -12q-15 0 -61 56l-93 113q-25 30 -20 53z" />
    <glyph glyph-name="equal" unicode="=" 
 />
    <glyph glyph-name="greater" unicode="&#x3e;" horiz-adv-x="2880" 
d="M911 -149h11q62 0 238 41q120 28 120 99q0 25 -14 54q-54 114 -219 214q-150 92 -293 121q-25 5 -52 5q-83 0 -87 -79q-5 -107 74 -222q44 -64 158 -181q28 -29 64 -52zM1546 62q78 119 153 280q127 273 139 822q11 504 -168 504q-13 0 -31 -4q-211 -47 -227 -606
q-3 -106 -3 -148q0 -450 88 -720q23 -71 49 -128zM2151 950q-54 -17 -53 -37q1 -9 -2 -9q-4 2 -10 16q-15 27 30 63q22 18 77 18q59 0 152 -19q185 -38 192 -137q14 -188 -230 -339q-108 -67 -262 -290q-88 -127 -88 -286q0 -118 51 -257l52 -142q11 -30 68 -130
q43 -75 43 -115q0 -27 -16 -27q-9 0 -23 9q-56 27 -241 219q-219 226 -342 461q-29 -36 -56 -60q-101 -92 -218 -136q-82 -31 -156 -31q-112 0 -230 81q-126 -2 -198 12q-156 30 -283 91q-23 11 -42 11q-30 0 -49 -29q-22 -32 -69 -200q-42 -148 -71 -163q-9 -3 -16 -3
q-25 0 -41 40q-8 21 -9 27v1l15 -25q5 -9 11 -9q27 0 74 183q57 225 122 227q55 2 131 -29q62 -27 190 -68q70 -14 172 -17q-90 76 -182 210q-83 120 -83 216q0 133 110 160q33 8 63 8q63 0 131 -28q372 -152 458 -373q14 -36 14 -67q0 -139 -337 -169q65 -21 139 -20
q178 3 305 141q31 34 71 88q-40 85 -70 180q-97 309 -97 708q0 73 4 163q22 504 204 619q76 48 136 48q216 0 216 -534q0 -91 -4 -168q-23 -444 -153 -736q-85 -191 -170 -307q108 -210 300 -417q127 -137 179 -177q6 2 12 11q0 16 -31 62q-63 93 -121 340q-16 68 -16 136
q0 172 107 327q44 63 259 258q184 166 203 245q5 20 5 37q0 89 -124 119q-110 27 -151 27q-27 0 -52 -8zM37 466q0 19 42 93q37 66 95 66q27 0 57 -13q51 -22 50 -26q-6 -2 -43 7q-17 4 -36 4q-61 0 -86 -64q-32 -82 -40 -90q-3 -3 -8 -3q-31 0 -31 26z" />
    <glyph glyph-name="question" unicode="?" horiz-adv-x="876" 
d="M78 1318q86 38 156 38q36 0 100 -8q186 -23 295 -123q102 -93 161 -278q27 -84 27 -164q0 -128 -73 -230q-80 -112 -169 -144q-52 -19 -168 -16q-124 3 -178 -12q-7 -2 -7 -13q0 -33 73 -161q46 -80 46 -130q0 -51 -52 -66q-38 -11 -66 -11q-51 0 -80 33q-62 70 -124 345
q-8 36 -8 68q0 22 5 57q9 60 222 75q227 15 261 72q38 63 32 198q-5 134 -122 205q-90 55 -164 55q-13 0 -39 -4.5t-39 -4.5q-70 1 -127 77q-28 37 -28 66q0 47 66 76zM454 -201q2 -36 -16 -65q-36 -56 -108 -57q-79 -2 -124 56q-21 27 -21 58q0 53 44 94q30 28 66 31
q101 10 139 -53q18 -28 20 -64z" />
    <glyph glyph-name="at" unicode="@" 
 />
    <glyph glyph-name="A" unicode="A" 
 />
    <glyph glyph-name="B" unicode="B" 
 />
    <glyph glyph-name="C" unicode="C" 
 />
    <glyph glyph-name="D" unicode="D" 
 />
    <glyph glyph-name="E" unicode="E" 
 />
    <glyph glyph-name="F" unicode="F" 
 />
    <glyph glyph-name="G" unicode="G" 
 />
    <glyph glyph-name="H" unicode="H" 
 />
    <glyph glyph-name="I" unicode="I" 
 />
    <glyph glyph-name="J" unicode="J" 
 />
    <glyph glyph-name="K" unicode="K" 
 />
    <glyph glyph-name="L" unicode="L" 
 />
    <glyph glyph-name="M" unicode="M" 
 />
    <glyph glyph-name="N" unicode="N" 
 />
    <glyph glyph-name="O" unicode="O" 
 />
    <glyph glyph-name="P" unicode="P" 
 />
    <glyph glyph-name="Q" unicode="Q" 
 />
    <glyph glyph-name="R" unicode="R" 
 />
    <glyph glyph-name="S" unicode="S" 
 />
    <glyph glyph-name="T" unicode="T" 
 />
    <glyph glyph-name="U" unicode="U" 
 />
    <glyph glyph-name="V" unicode="V" 
 />
    <glyph glyph-name="W" unicode="W" 
 />
    <glyph glyph-name="X" unicode="X" 
 />
    <glyph glyph-name="Y" unicode="Y" 
 />
    <glyph glyph-name="Z" unicode="Z" 
 />
    <glyph glyph-name="bracketleft" unicode="[" 
 />
    <glyph glyph-name="backslash" unicode="\" 
 />
    <glyph glyph-name="bracketright" unicode="]" 
 />
    <glyph glyph-name="asciicircum" unicode="^" 
 />
    <glyph glyph-name="underscore" unicode="_" 
 />
    <glyph glyph-name="grave" unicode="`" 
 />
    <glyph glyph-name="a" unicode="a" 
 />
    <glyph glyph-name="b" unicode="b" 
 />
    <glyph glyph-name="c" unicode="c" 
 />
    <glyph glyph-name="d" unicode="d" 
 />
    <glyph glyph-name="e" unicode="e" 
 />
    <glyph glyph-name="f" unicode="f" 
 />
    <glyph glyph-name="g" unicode="g" 
 />
    <glyph glyph-name="h" unicode="h" 
 />
    <glyph glyph-name="i" unicode="i" 
 />
    <glyph glyph-name="j" unicode="j" 
 />
    <glyph glyph-name="k" unicode="k" 
 />
    <glyph glyph-name="l" unicode="l" 
 />
    <glyph glyph-name="m" unicode="m" 
 />
    <glyph glyph-name="n" unicode="n" 
 />
    <glyph glyph-name="o" unicode="o" 
 />
    <glyph glyph-name="p" unicode="p" 
 />
    <glyph glyph-name="q" unicode="q" 
 />
    <glyph glyph-name="r" unicode="r" 
 />
    <glyph glyph-name="s" unicode="s" 
 />
    <glyph glyph-name="t" unicode="t" 
 />
    <glyph glyph-name="u" unicode="u" 
 />
    <glyph glyph-name="v" unicode="v" 
 />
    <glyph glyph-name="w" unicode="w" 
 />
    <glyph glyph-name="x" unicode="x" 
 />
    <glyph glyph-name="y" unicode="y" 
 />
    <glyph glyph-name="z" unicode="z" 
 />
    <glyph glyph-name="braceleft" unicode="{" 
 />
    <glyph glyph-name="bar" unicode="|" 
 />
    <glyph glyph-name="braceright" unicode="}" 
 />
    <glyph glyph-name="asciitilde" unicode="~" 
 />
    <glyph glyph-name="nonbreakingspace" unicode="&#xa0;" 
 />
    <glyph glyph-name="exclamdown" unicode="&#xa1;" 
 />
    <glyph glyph-name="cent" unicode="&#xa2;" 
 />
    <glyph glyph-name="sterling" unicode="&#xa3;" 
 />
    <glyph glyph-name="currency" unicode="&#xa4;" 
 />
    <glyph glyph-name="yen" unicode="&#xa5;" 
 />
    <glyph glyph-name="brokenbar" unicode="&#xa6;" 
 />
    <glyph glyph-name="section" unicode="&#xa7;" 
 />
    <glyph glyph-name="dieresis" unicode="&#xa8;" 
 />
    <glyph glyph-name="copyright" unicode="&#xa9;" 
 />
    <glyph glyph-name="ordfeminine" unicode="&#xaa;" 
 />
    <glyph glyph-name="guillemotleft" unicode="&#xab;" 
 />
    <glyph glyph-name="logicalnot" unicode="&#xac;" 
 />
    <glyph glyph-name="sfthyphen" unicode="&#xad;" 
 />
    <glyph glyph-name="registered" unicode="&#xae;" 
 />
    <glyph glyph-name="overscore" unicode="&#xaf;" 
 />
    <glyph glyph-name="degree" unicode="&#xb0;" 
 />
    <glyph glyph-name="plusminus" unicode="&#xb1;" 
 />
    <glyph glyph-name="twosuperior" unicode="&#xb2;" 
 />
    <glyph glyph-name="threesuperior" unicode="&#xb3;" 
 />
    <glyph glyph-name="acute" unicode="&#xb4;" 
 />
    <glyph glyph-name="micro" unicode="&#xb5;" 
 />
    <glyph glyph-name="paragraph" unicode="&#xb6;" 
 />
    <glyph glyph-name="middot" unicode="&#xb7;" 
 />
    <glyph glyph-name="cedilla" unicode="&#xb8;" 
 />
    <glyph glyph-name="onesuperior" unicode="&#xb9;" 
 />
    <glyph glyph-name="ordmasculine" unicode="&#xba;" 
 />
    <glyph glyph-name="guillemotright" unicode="&#xbb;" 
 />
    <glyph glyph-name="onequarter" unicode="&#xbc;" 
 />
    <glyph glyph-name="onehalf" unicode="&#xbd;" 
 />
    <glyph glyph-name="threequarters" unicode="&#xbe;" 
 />
    <glyph glyph-name="questiondown" unicode="&#xbf;" 
 />
    <glyph glyph-name="Agrave" unicode="&#xc0;" 
 />
    <glyph glyph-name="Aacute" unicode="&#xc1;" 
 />
    <glyph glyph-name="Acircumflex" unicode="&#xc2;" 
 />
    <glyph glyph-name="Atilde" unicode="&#xc3;" 
 />
    <glyph glyph-name="Adieresis" unicode="&#xc4;" 
 />
    <glyph glyph-name="Aring" unicode="&#xc5;" 
 />
    <glyph glyph-name="AE" unicode="&#xc6;" 
 />
    <glyph glyph-name="Ccedilla" unicode="&#xc7;" 
 />
    <glyph glyph-name="Egrave" unicode="&#xc8;" 
 />
    <glyph glyph-name="Eacute" unicode="&#xc9;" 
 />
    <glyph glyph-name="Ecircumflex" unicode="&#xca;" 
 />
    <glyph glyph-name="Edieresis" unicode="&#xcb;" 
 />
    <glyph glyph-name="Igrave" unicode="&#xcc;" 
 />
    <glyph glyph-name="Iacute" unicode="&#xcd;" 
 />
    <glyph glyph-name="Icircumflex" unicode="&#xce;" 
 />
    <glyph glyph-name="Idieresis" unicode="&#xcf;" 
 />
    <glyph glyph-name="Eth" unicode="&#xd0;" 
 />
    <glyph glyph-name="Ntilde" unicode="&#xd1;" 
 />
    <glyph glyph-name="Ograve" unicode="&#xd2;" 
 />
    <glyph glyph-name="Oacute" unicode="&#xd3;" 
 />
    <glyph glyph-name="Ocircumflex" unicode="&#xd4;" 
 />
    <glyph glyph-name="Otilde" unicode="&#xd5;" 
 />
    <glyph glyph-name="Odieresis" unicode="&#xd6;" 
 />
    <glyph glyph-name="multiply" unicode="&#xd7;" 
 />
    <glyph glyph-name="Oslash" unicode="&#xd8;" 
 />
    <glyph glyph-name="Ugrave" unicode="&#xd9;" 
 />
    <glyph glyph-name="Uacute" unicode="&#xda;" 
 />
    <glyph glyph-name="Ucircumflex" unicode="&#xdb;" 
 />
    <glyph glyph-name="Udieresis" unicode="&#xdc;" 
 />
    <glyph glyph-name="Yacute" unicode="&#xdd;" 
 />
    <glyph glyph-name="Thorn" unicode="&#xde;" 
 />
    <glyph glyph-name="germandbls" unicode="&#xdf;" 
 />
    <glyph glyph-name="agrave" unicode="&#xe0;" 
 />
    <glyph glyph-name="aacute" unicode="&#xe1;" 
 />
    <glyph glyph-name="acircumflex" unicode="&#xe2;" 
 />
    <glyph glyph-name="atilde" unicode="&#xe3;" 
 />
    <glyph glyph-name="adieresis" unicode="&#xe4;" 
 />
    <glyph glyph-name="aring" unicode="&#xe5;" 
 />
    <glyph glyph-name="ae" unicode="&#xe6;" 
 />
    <glyph glyph-name="ccedilla" unicode="&#xe7;" 
 />
    <glyph glyph-name="egrave" unicode="&#xe8;" 
 />
    <glyph glyph-name="eacute" unicode="&#xe9;" 
 />
    <glyph glyph-name="ecircumflex" unicode="&#xea;" 
 />
    <glyph glyph-name="edieresis" unicode="&#xeb;" 
 />
    <glyph glyph-name="igrave" unicode="&#xec;" 
 />
    <glyph glyph-name="iacute" unicode="&#xed;" 
 />
    <glyph glyph-name="icircumflex" unicode="&#xee;" 
 />
    <glyph glyph-name="idieresis" unicode="&#xef;" 
 />
    <glyph glyph-name="eth" unicode="&#xf0;" 
 />
    <glyph glyph-name="ntilde" unicode="&#xf1;" 
 />
    <glyph glyph-name="ograve" unicode="&#xf2;" 
 />
    <glyph glyph-name="oacute" unicode="&#xf3;" 
 />
    <glyph glyph-name="ocircumflex" unicode="&#xf4;" 
 />
    <glyph glyph-name="otilde" unicode="&#xf5;" 
 />
    <glyph glyph-name="odieresis" unicode="&#xf6;" 
 />
    <glyph glyph-name="divide" unicode="&#xf7;" 
 />
    <glyph glyph-name="oslash" unicode="&#xf8;" 
 />
    <glyph glyph-name="ugrave" unicode="&#xf9;" 
 />
    <glyph glyph-name="uacute" unicode="&#xfa;" 
 />
    <glyph glyph-name="ucircumflex" unicode="&#xfb;" 
 />
    <glyph glyph-name="udieresis" unicode="&#xfc;" 
 />
    <glyph glyph-name="yacute" unicode="&#xfd;" 
 />
    <glyph glyph-name="thorn" unicode="&#xfe;" 
 />
    <glyph glyph-name="ydieresis" unicode="&#xff;" 
 />
    <glyph glyph-name="Amacron" unicode="&#x100;" 
 />
    <glyph glyph-name="amacron" unicode="&#x101;" 
 />
    <glyph glyph-name="Abreve" unicode="&#x102;" 
 />
    <glyph glyph-name="abreve" unicode="&#x103;" 
 />
    <glyph glyph-name="Aogonek" unicode="&#x104;" 
 />
    <glyph glyph-name="aogonek" unicode="&#x105;" 
 />
    <glyph glyph-name="Cacute" unicode="&#x106;" 
 />
    <glyph glyph-name="cacute" unicode="&#x107;" 
 />
    <glyph glyph-name="Ccircumflex" unicode="&#x108;" 
 />
    <glyph glyph-name="ccircumflex" unicode="&#x109;" 
 />
    <glyph glyph-name="Cdot" unicode="&#x10a;" 
 />
    <glyph glyph-name="cdot" unicode="&#x10b;" 
 />
    <glyph glyph-name="Ccaron" unicode="&#x10c;" 
 />
    <glyph glyph-name="ccaron" unicode="&#x10d;" 
 />
    <glyph glyph-name="Dcaron" unicode="&#x10e;" 
 />
    <glyph glyph-name="dcaron" unicode="&#x10f;" 
 />
    <glyph glyph-name="Dslash" unicode="&#x110;" 
 />
    <glyph glyph-name="dcroat" unicode="&#x111;" 
 />
    <glyph glyph-name="Emacron" unicode="&#x112;" 
 />
    <glyph glyph-name="emacron" unicode="&#x113;" 
 />
    <glyph glyph-name="Ebreve" unicode="&#x114;" 
 />
    <glyph glyph-name="ebreve" unicode="&#x115;" 
 />
    <glyph glyph-name="Edot" unicode="&#x116;" 
 />
    <glyph glyph-name="edot" unicode="&#x117;" 
 />
    <glyph glyph-name="Eogonek" unicode="&#x118;" 
 />
    <glyph glyph-name="eogonek" unicode="&#x119;" 
 />
    <glyph glyph-name="Ecaron" unicode="&#x11a;" 
 />
    <glyph glyph-name="ecaron" unicode="&#x11b;" 
 />
    <glyph glyph-name="Gcircumflex" unicode="&#x11c;" 
 />
    <glyph glyph-name="gcircumflex" unicode="&#x11d;" 
 />
    <glyph glyph-name="Gbreve" unicode="&#x11e;" 
 />
    <glyph glyph-name="gbreve" unicode="&#x11f;" 
 />
    <glyph glyph-name="Gdot" unicode="&#x120;" 
 />
    <glyph glyph-name="gdot" unicode="&#x121;" 
 />
    <glyph glyph-name="Gcedilla" unicode="&#x122;" 
 />
    <glyph glyph-name="gcedilla" unicode="&#x123;" 
 />
    <glyph glyph-name="Hcircumflex" unicode="&#x124;" 
 />
    <glyph glyph-name="hcircumflex" unicode="&#x125;" 
 />
    <glyph glyph-name="Hbar" unicode="&#x126;" 
 />
    <glyph glyph-name="hbar" unicode="&#x127;" 
 />
    <glyph glyph-name="Itilde" unicode="&#x128;" 
 />
    <glyph glyph-name="itilde" unicode="&#x129;" 
 />
    <glyph glyph-name="Imacron" unicode="&#x12a;" 
 />
    <glyph glyph-name="imacron" unicode="&#x12b;" 
 />
    <glyph glyph-name="Ibreve" unicode="&#x12c;" 
 />
    <glyph glyph-name="ibreve" unicode="&#x12d;" 
 />
    <glyph glyph-name="Iogonek" unicode="&#x12e;" 
 />
    <glyph glyph-name="iogonek" unicode="&#x12f;" 
 />
    <glyph glyph-name="Idotaccent" unicode="&#x130;" 
 />
    <glyph glyph-name="dotlessi" unicode="&#x131;" 
 />
    <glyph glyph-name="IJ" unicode="&#x132;" 
 />
    <glyph glyph-name="ij" unicode="&#x133;" 
 />
    <glyph glyph-name="Jcircumflex" unicode="&#x134;" 
 />
    <glyph glyph-name="jcircumflex" unicode="&#x135;" 
 />
    <glyph glyph-name="Kcedilla" unicode="&#x136;" 
 />
    <glyph glyph-name="kcedilla" unicode="&#x137;" 
 />
    <glyph glyph-name="kgreenlandic" unicode="&#x138;" 
 />
    <glyph glyph-name="Lacute" unicode="&#x139;" 
 />
    <glyph glyph-name="lacute" unicode="&#x13a;" 
 />
    <glyph glyph-name="Lcedilla" unicode="&#x13b;" 
 />
    <glyph glyph-name="lcedilla" unicode="&#x13c;" 
 />
    <glyph glyph-name="Lcaron" unicode="&#x13d;" 
 />
    <glyph glyph-name="lcaron" unicode="&#x13e;" 
 />
    <glyph glyph-name="Ldot" unicode="&#x13f;" 
 />
    <glyph glyph-name="ldot" unicode="&#x140;" 
 />
    <glyph glyph-name="Lslash" unicode="&#x141;" 
 />
    <glyph glyph-name="lslash" unicode="&#x142;" 
 />
    <glyph glyph-name="Nacute" unicode="&#x143;" 
 />
    <glyph glyph-name="nacute" unicode="&#x144;" 
 />
    <glyph glyph-name="Ncedilla" unicode="&#x145;" 
 />
    <glyph glyph-name="ncedilla" unicode="&#x146;" 
 />
    <glyph glyph-name="Ncaron" unicode="&#x147;" 
 />
    <glyph glyph-name="ncaron" unicode="&#x148;" 
 />
    <glyph glyph-name="napostrophe" unicode="&#x149;" 
 />
    <glyph glyph-name="Eng" unicode="&#x14a;" 
 />
    <glyph glyph-name="eng" unicode="&#x14b;" 
 />
    <glyph glyph-name="Omacron" unicode="&#x14c;" 
 />
    <glyph glyph-name="omacron" unicode="&#x14d;" 
 />
    <glyph glyph-name="Obreve" unicode="&#x14e;" 
 />
    <glyph glyph-name="obreve" unicode="&#x14f;" 
 />
    <glyph glyph-name="Odblacute" unicode="&#x150;" 
 />
    <glyph glyph-name="odblacute" unicode="&#x151;" 
 />
    <glyph glyph-name="OE" unicode="&#x152;" 
 />
    <glyph glyph-name="oe" unicode="&#x153;" 
 />
    <glyph glyph-name="Racute" unicode="&#x154;" 
 />
    <glyph glyph-name="racute" unicode="&#x155;" 
 />
    <glyph glyph-name="Rcedilla" unicode="&#x156;" 
 />
    <glyph glyph-name="rcedilla" unicode="&#x157;" 
 />
    <glyph glyph-name="Rcaron" unicode="&#x158;" 
 />
    <glyph glyph-name="rcaron" unicode="&#x159;" 
 />
    <glyph glyph-name="Sacute" unicode="&#x15a;" 
 />
    <glyph glyph-name="sacute" unicode="&#x15b;" 
 />
    <glyph glyph-name="Scircumflex" unicode="&#x15c;" 
 />
    <glyph glyph-name="scircumflex" unicode="&#x15d;" 
 />
    <glyph glyph-name="Scedilla" unicode="&#x15e;" 
 />
    <glyph glyph-name="scedilla" unicode="&#x15f;" 
 />
    <glyph glyph-name="Scaron" unicode="&#x160;" 
 />
    <glyph glyph-name="scaron" unicode="&#x161;" 
 />
    <glyph glyph-name="Tcedilla" unicode="&#x162;" 
 />
    <glyph glyph-name="tcedilla" unicode="&#x163;" 
 />
    <glyph glyph-name="Tcaron" unicode="&#x164;" 
 />
    <glyph glyph-name="tcaron" unicode="&#x165;" 
 />
    <glyph glyph-name="Tbar" unicode="&#x166;" 
 />
    <glyph glyph-name="tbar" unicode="&#x167;" 
 />
    <glyph glyph-name="Utilde" unicode="&#x168;" 
 />
    <glyph glyph-name="utilde" unicode="&#x169;" 
 />
    <glyph glyph-name="Umacron" unicode="&#x16a;" 
 />
    <glyph glyph-name="umacron" unicode="&#x16b;" 
 />
    <glyph glyph-name="Ubreve" unicode="&#x16c;" 
 />
    <glyph glyph-name="ubreve" unicode="&#x16d;" 
 />
    <glyph glyph-name="Uring" unicode="&#x16e;" 
 />
    <glyph glyph-name="uring" unicode="&#x16f;" 
 />
    <glyph glyph-name="Udblacute" unicode="&#x170;" 
 />
    <glyph glyph-name="udblacute" unicode="&#x171;" 
 />
    <glyph glyph-name="Uogonek" unicode="&#x172;" 
 />
    <glyph glyph-name="uogonek" unicode="&#x173;" 
 />
    <glyph glyph-name="Wcircumflex" unicode="&#x174;" 
 />
    <glyph glyph-name="wcircumflex" unicode="&#x175;" 
 />
    <glyph glyph-name="Ycircumflex" unicode="&#x176;" 
 />
    <glyph glyph-name="ycircumflex" unicode="&#x177;" 
 />
    <glyph glyph-name="Ydieresis" unicode="&#x178;" 
 />
    <glyph glyph-name="Zacute" unicode="&#x179;" 
 />
    <glyph glyph-name="zacute" unicode="&#x17a;" 
 />
    <glyph glyph-name="Zdot" unicode="&#x17b;" 
 />
    <glyph glyph-name="zdot" unicode="&#x17c;" 
 />
    <glyph glyph-name="Zcaron" unicode="&#x17d;" 
 />
    <glyph glyph-name="zcaron" unicode="&#x17e;" 
 />
    <glyph glyph-name="longs" unicode="&#x17f;" 
 />
    <glyph glyph-name="florin" unicode="&#x192;" 
 />
    <glyph glyph-name="Aringacute" unicode="&#x1fa;" 
 />
    <glyph glyph-name="aringacute" unicode="&#x1fb;" 
 />
    <glyph glyph-name="AEacute" unicode="&#x1fc;" 
 />
    <glyph glyph-name="aeacute" unicode="&#x1fd;" 
 />
    <glyph glyph-name="Oslashacute" unicode="&#x1fe;" 
 />
    <glyph glyph-name="oslashacute" unicode="&#x1ff;" 
 />
    <glyph glyph-name="circumflex" unicode="&#x2c6;" 
 />
    <glyph glyph-name="caron" unicode="&#x2c7;" 
 />
    <glyph glyph-name="macron" unicode="&#x2c9;" 
 />
    <glyph glyph-name="breve" unicode="&#x2d8;" 
 />
    <glyph glyph-name="dotaccent" unicode="&#x2d9;" 
 />
    <glyph glyph-name="ring" unicode="&#x2da;" 
 />
    <glyph glyph-name="ogonek" unicode="&#x2db;" 
 />
    <glyph glyph-name="tilde" unicode="&#x2dc;" 
 />
    <glyph glyph-name="hungarumlaut" unicode="&#x2dd;" 
 />
    <glyph glyph-name="tonos" unicode="&#x384;" 
 />
    <glyph glyph-name="dieresistonos" unicode="&#x385;" 
 />
    <glyph glyph-name="Alphatonos" unicode="&#x386;" 
 />
    <glyph glyph-name="anoteleia" unicode="&#x387;" 
 />
    <glyph glyph-name="Epsilontonos" unicode="&#x388;" 
 />
    <glyph glyph-name="Etatonos" unicode="&#x389;" 
 />
    <glyph glyph-name="Iotatonos" unicode="&#x38a;" 
 />
    <glyph glyph-name="Omicrontonos" unicode="&#x38c;" 
 />
    <glyph glyph-name="Upsilontonos" unicode="&#x38e;" 
 />
    <glyph glyph-name="Omegatonos" unicode="&#x38f;" 
 />
    <glyph glyph-name="iotadieresistonos" unicode="&#x390;" 
 />
    <glyph glyph-name="Alpha" unicode="&#x391;" 
 />
    <glyph glyph-name="Beta" unicode="&#x392;" 
 />
    <glyph glyph-name="Gamma" unicode="&#x393;" 
 />
    <glyph glyph-name="Delta" unicode="&#x394;" 
 />
    <glyph glyph-name="Epsilon" unicode="&#x395;" 
 />
    <glyph glyph-name="Zeta" unicode="&#x396;" 
 />
    <glyph glyph-name="Eta" unicode="&#x397;" 
 />
    <glyph glyph-name="Theta" unicode="&#x398;" 
 />
    <glyph glyph-name="Theta" unicode="&#x472;" 
 />
    <glyph glyph-name="Iota" unicode="&#x399;" 
 />
    <glyph glyph-name="Kappa" unicode="&#x39a;" 
 />
    <glyph glyph-name="Lambda" unicode="&#x39b;" 
 />
    <glyph glyph-name="Mu" unicode="&#x39c;" 
 />
    <glyph glyph-name="Nu" unicode="&#x39d;" 
 />
    <glyph glyph-name="Xi" unicode="&#x39e;" 
 />
    <glyph glyph-name="Omicron" unicode="&#x39f;" 
 />
    <glyph glyph-name="Pi" unicode="&#x3a0;" 
 />
    <glyph glyph-name="Rho" unicode="&#x3a1;" 
 />
    <glyph glyph-name="Sigma" unicode="&#x3a3;" 
 />
    <glyph glyph-name="Tau" unicode="&#x3a4;" 
 />
    <glyph glyph-name="Upsilon" unicode="&#x3a5;" 
 />
    <glyph glyph-name="Phi" unicode="&#x3a6;" 
 />
    <glyph glyph-name="Chi" unicode="&#x3a7;" 
 />
    <glyph glyph-name="Psi" unicode="&#x3a8;" 
 />
    <glyph glyph-name="Psi" unicode="&#x470;" 
 />
    <glyph glyph-name="Omega" unicode="&#x3a9;" 
 />
    <glyph glyph-name="Iotadieresis" unicode="&#x3aa;" 
 />
    <glyph glyph-name="Upsilondieresis" unicode="&#x3ab;" 
 />
    <glyph glyph-name="alphatonos" unicode="&#x3ac;" 
 />
    <glyph glyph-name="epsilontonos" unicode="&#x3ad;" 
 />
    <glyph glyph-name="etatonos" unicode="&#x3ae;" 
 />
    <glyph glyph-name="iotatonos" unicode="&#x3af;" 
 />
    <glyph glyph-name="upsilondieresistonos" unicode="&#x3b0;" 
 />
    <glyph glyph-name="alpha" unicode="&#x3b1;" 
 />
    <glyph glyph-name="beta" unicode="&#x3b2;" 
 />
    <glyph glyph-name="gamma" unicode="&#x3b3;" 
 />
    <glyph glyph-name="delta" unicode="&#x3b4;" 
 />
    <glyph glyph-name="epsilon" unicode="&#x3b5;" 
 />
    <glyph glyph-name="zeta" unicode="&#x3b6;" 
 />
    <glyph glyph-name="eta" unicode="&#x3b7;" 
 />
    <glyph glyph-name="theta" unicode="&#x3b8;" 
 />
    <glyph glyph-name="theta" unicode="&#x473;" 
 />
    <glyph glyph-name="iota" unicode="&#x3b9;" 
 />
    <glyph glyph-name="kappa" unicode="&#x3ba;" 
 />
    <glyph glyph-name="lambda" unicode="&#x3bb;" 
 />
    <glyph glyph-name="mu" unicode="&#x3bc;" 
 />
    <glyph glyph-name="nu" unicode="&#x3bd;" 
 />
    <glyph glyph-name="xi" unicode="&#x3be;" 
 />
    <glyph glyph-name="omicron" unicode="&#x3bf;" 
 />
    <glyph glyph-name="pi" unicode="&#x3c0;" 
 />
    <glyph glyph-name="rho" unicode="&#x3c1;" 
 />
    <glyph glyph-name="sigma1" unicode="&#x3c2;" 
 />
    <glyph glyph-name="sigma" unicode="&#x3c3;" 
 />
    <glyph glyph-name="tau" unicode="&#x3c4;" 
 />
    <glyph glyph-name="upsilon" unicode="&#x3c5;" 
 />
    <glyph glyph-name="phi" unicode="&#x3c6;" 
 />
    <glyph glyph-name="chi" unicode="&#x3c7;" 
 />
    <glyph glyph-name="psi" unicode="&#x3c8;" 
 />
    <glyph glyph-name="psi" unicode="&#x471;" 
 />
    <glyph glyph-name="omega" unicode="&#x3c9;" 
 />
    <glyph glyph-name="iotadieresis" unicode="&#x3ca;" 
 />
    <glyph glyph-name="upsilondieresis" unicode="&#x3cb;" 
 />
    <glyph glyph-name="omicrontonos" unicode="&#x3cc;" 
 />
    <glyph glyph-name="upsilontonos" unicode="&#x3cd;" 
 />
    <glyph glyph-name="omegatonos" unicode="&#x3ce;" 
 />
    <glyph glyph-name="afii10023" unicode="&#x401;" 
 />
    <glyph glyph-name="afii10051" unicode="&#x402;" 
 />
    <glyph glyph-name="afii10052" unicode="&#x403;" 
 />
    <glyph glyph-name="afii10053" unicode="&#x404;" 
 />
    <glyph glyph-name="afii10054" unicode="&#x405;" 
 />
    <glyph glyph-name="afii10055" unicode="&#x406;" 
 />
    <glyph glyph-name="afii10056" unicode="&#x407;" 
 />
    <glyph glyph-name="afii10057" unicode="&#x408;" 
 />
    <glyph glyph-name="afii10058" unicode="&#x409;" 
 />
    <glyph glyph-name="afii10059" unicode="&#x40a;" 
 />
    <glyph glyph-name="afii10060" unicode="&#x40b;" 
 />
    <glyph glyph-name="afii10061" unicode="&#x40c;" 
 />
    <glyph glyph-name="afii10062" unicode="&#x40e;" 
 />
    <glyph glyph-name="afii10145" unicode="&#x40f;" 
 />
    <glyph glyph-name="afii10017" unicode="&#x410;" 
 />
    <glyph glyph-name="afii10018" unicode="&#x411;" 
 />
    <glyph glyph-name="afii10019" unicode="&#x412;" 
 />
    <glyph glyph-name="afii10020" unicode="&#x413;" 
 />
    <glyph glyph-name="afii10021" unicode="&#x414;" 
 />
    <glyph glyph-name="afii10022" unicode="&#x415;" 
 />
    <glyph glyph-name="afii10024" unicode="&#x416;" 
 />
    <glyph glyph-name="afii10025" unicode="&#x417;" 
 />
    <glyph glyph-name="afii10026" unicode="&#x418;" 
 />
    <glyph glyph-name="afii10027" unicode="&#x419;" 
 />
    <glyph glyph-name="afii10028" unicode="&#x41a;" 
 />
    <glyph glyph-name="afii10029" unicode="&#x41b;" 
 />
    <glyph glyph-name="afii10030" unicode="&#x41c;" 
 />
    <glyph glyph-name="afii10031" unicode="&#x41d;" 
 />
    <glyph glyph-name="afii10032" unicode="&#x41e;" 
 />
    <glyph glyph-name="afii10033" unicode="&#x41f;" 
 />
    <glyph glyph-name="afii10034" unicode="&#x420;" 
 />
    <glyph glyph-name="afii10035" unicode="&#x421;" 
 />
    <glyph glyph-name="afii10036" unicode="&#x422;" 
 />
    <glyph glyph-name="afii10037" unicode="&#x423;" 
 />
    <glyph glyph-name="afii10038" unicode="&#x424;" 
 />
    <glyph glyph-name="afii10039" unicode="&#x425;" 
 />
    <glyph glyph-name="afii10040" unicode="&#x426;" 
 />
    <glyph glyph-name="afii10041" unicode="&#x427;" 
 />
    <glyph glyph-name="afii10042" unicode="&#x428;" 
 />
    <glyph glyph-name="afii10043" unicode="&#x429;" 
 />
    <glyph glyph-name="afii10044" unicode="&#x42a;" 
 />
    <glyph glyph-name="afii10045" unicode="&#x42b;" 
 />
    <glyph glyph-name="afii10046" unicode="&#x42c;" 
 />
    <glyph glyph-name="afii10047" unicode="&#x42d;" 
 />
    <glyph glyph-name="afii10048" unicode="&#x42e;" 
 />
    <glyph glyph-name="afii10049" unicode="&#x42f;" 
 />
    <glyph glyph-name="afii10065" unicode="&#x430;" 
 />
    <glyph glyph-name="afii10066" unicode="&#x431;" 
 />
    <glyph glyph-name="afii10067" unicode="&#x432;" 
 />
    <glyph glyph-name="afii10068" unicode="&#x433;" 
 />
    <glyph glyph-name="afii10069" unicode="&#x434;" 
 />
    <glyph glyph-name="afii10070" unicode="&#x435;" 
 />
    <glyph glyph-name="afii10072" unicode="&#x436;" 
 />
    <glyph glyph-name="afii10073" unicode="&#x437;" 
 />
    <glyph glyph-name="afii10074" unicode="&#x438;" 
 />
    <glyph glyph-name="afii10075" unicode="&#x439;" 
 />
    <glyph glyph-name="afii10076" unicode="&#x43a;" 
 />
    <glyph glyph-name="afii10077" unicode="&#x43b;" 
 />
    <glyph glyph-name="afii10078" unicode="&#x43c;" 
 />
    <glyph glyph-name="afii10079" unicode="&#x43d;" 
 />
    <glyph glyph-name="afii10080" unicode="&#x43e;" 
 />
    <glyph glyph-name="afii10081" unicode="&#x43f;" 
 />
    <glyph glyph-name="afii10082" unicode="&#x440;" 
 />
    <glyph glyph-name="afii10083" unicode="&#x441;" 
 />
    <glyph glyph-name="afii10084" unicode="&#x442;" 
 />
    <glyph glyph-name="afii10085" unicode="&#x443;" 
 />
    <glyph glyph-name="afii10086" unicode="&#x444;" 
 />
    <glyph glyph-name="afii10087" unicode="&#x445;" 
 />
    <glyph glyph-name="afii10088" unicode="&#x446;" 
 />
    <glyph glyph-name="afii10089" unicode="&#x447;" 
 />
    <glyph glyph-name="afii10090" unicode="&#x448;" 
 />
    <glyph glyph-name="afii10091" unicode="&#x449;" 
 />
    <glyph glyph-name="afii10092" unicode="&#x44a;" 
 />
    <glyph glyph-name="afii10093" unicode="&#x44b;" 
 />
    <glyph glyph-name="afii10094" unicode="&#x44c;" 
 />
    <glyph glyph-name="afii10095" unicode="&#x44d;" 
 />
    <glyph glyph-name="afii10096" unicode="&#x44e;" 
 />
    <glyph glyph-name="afii10097" unicode="&#x44f;" 
 />
    <glyph glyph-name="afii10071" unicode="&#x451;" 
 />
    <glyph glyph-name="afii10099" unicode="&#x452;" 
 />
    <glyph glyph-name="afii10100" unicode="&#x453;" 
 />
    <glyph glyph-name="afii10101" unicode="&#x454;" 
 />
    <glyph glyph-name="afii10102" unicode="&#x455;" 
 />
    <glyph glyph-name="afii10103" unicode="&#x456;" 
 />
    <glyph glyph-name="afii10104" unicode="&#x457;" 
 />
    <glyph glyph-name="afii10105" unicode="&#x458;" 
 />
    <glyph glyph-name="afii10106" unicode="&#x459;" 
 />
    <glyph glyph-name="afii10107" unicode="&#x45a;" 
 />
    <glyph glyph-name="afii10108" unicode="&#x45b;" 
 />
    <glyph glyph-name="afii10109" unicode="&#x45c;" 
 />
    <glyph glyph-name="afii10110" unicode="&#x45e;" 
 />
    <glyph glyph-name="afii10193" unicode="&#x45f;" 
 />
    <glyph glyph-name="afii10050" unicode="&#x490;" 
 />
    <glyph glyph-name="afii10098" unicode="&#x491;" 
 />
    <glyph glyph-name="sheva" unicode="&#x5b0;" 
 />
    <glyph glyph-name="hatafsegol" unicode="&#x5b1;" 
 />
    <glyph glyph-name="hatafpatah" unicode="&#x5b2;" 
 />
    <glyph glyph-name="hatafqamats" unicode="&#x5b3;" 
 />
    <glyph glyph-name="hiriq" unicode="&#x5b4;" 
 />
    <glyph glyph-name="tsere" unicode="&#x5b5;" 
 />
    <glyph glyph-name="segol" unicode="&#x5b6;" 
 />
    <glyph glyph-name="patah" unicode="&#x5b7;" 
 />
    <glyph glyph-name="qamats" unicode="&#x5b8;" 
 />
    <glyph glyph-name="holam" unicode="&#x5b9;" 
 />
    <glyph glyph-name="qibuts" unicode="&#x5bb;" 
 />
    <glyph glyph-name="dagesh" unicode="&#x5bc;" 
 />
    <glyph glyph-name="meteg" unicode="&#x5bd;" 
 />
    <glyph glyph-name="maqaf" unicode="&#x5be;" 
 />
    <glyph glyph-name="rafe" unicode="&#x5bf;" 
 />
    <glyph glyph-name="paseq" unicode="&#x5c0;" 
 />
    <glyph glyph-name="shindot" unicode="&#x5c1;" 
 />
    <glyph glyph-name="sindot" unicode="&#x5c2;" 
 />
    <glyph glyph-name="sofpasuq" unicode="&#x5c3;" 
 />
    <glyph glyph-name="alef" unicode="&#x5d0;" horiz-adv-x="1612" 
d="M1025 1165q114 -63 114 -146q0 -47 -35 -90q-48 -59 -208 -170q-143 -99 -211 -205q-45 -70 -45 -117q0 -34 25 -57q57 -52 238 -71q46 -5 84 -5q135 0 264 49q167 63 230 154q35 50 59 50q20 0 33 -32q19 -47 19 -110q0 -32 -6 -73q-16 -110 -252 -194
q-189 -67 -384 -67q-52 0 -98 4q-184 16 -260 54q-94 47 -173 188q-28 50 -28 117q0 46 12 97q37 157 253 365q204 197 369 259zM485 1877q14 2 27 2q75 0 75 -59q0 -35 -26 -89q-78 -163 -113 -286.5t-54 -303.5q-25 -236 -54 -458l-67 -517q-28 -219 -123 -219
q-21 0 -42 9q-87 37 -87 91q0 27 22 59q57 84 105 552q16 197 55 591q58 513 282 628z" />
    <glyph glyph-name="bet" unicode="&#x5d1;" horiz-adv-x="1306" 
d="M250 1086q-62 -45 -62 -85q0 -11 8 -44q21 -86 108 -86q62 0 150 33q38 14 86 14q90 0 215 -45q196 -71 308 -241q61 -93 61 -163q0 -59 -43 -101q-79 -78 -155 -78q-15 0 -30 3q-88 18 -262 151q-84 67 -253 199q-14 11 -32 11q-55 0 -127 -123l-117 -200
q-20 -33 -71 -121q-22 -39 -22 -66q0 -31 28 -46q53 -29 112 -32q46 -2 129 141.5t134 141.5q218 -206 349 -232q60 -12 117 -12q65 0 130 17q290 76 290 351q0 152 -93 309q-87 146 -218 240q-149 106 -325 127q-94 11 -166 11q-57 0 -91 -6q-85 -15 -158 -68z" />
    <glyph glyph-name="gimel" unicode="&#x5d2;" horiz-adv-x="1071" 
d="M631 1264q-93 -16 -93 -62q0 -33 83 -148q118 -164 118 -185q-1 -3 -2 -3q-73 -12 -218 -39q-99 -20 -212 -84q-275 -155 -275 -379q0 -23 5 -63q20 -157 175 -268q126 -90 309 -90q44 0 97 6q249 28 326 114q63 70 63 138q0 13 -3 28q-11 54 -59 54q-25 0 -60 -14
q-101 -41 -255 -93q-56 -19 -107 -19q-83 0 -163 49q-92 56 -92 134q0 40 26 83q75 124 347 191q179 44 412 56q4 6 4 17q0 65 -130 311q-143 271 -276 268q-10 0 -20 -2z" />
    <glyph glyph-name="dalet" unicode="&#x5d3;" horiz-adv-x="1106" 
d="M581 479q-45 44 -108 44q-17 0 -29 -2q-97 -16 -97 -42q0 -19 33 -34q28 -12 51 -12q59 0 150 46zM482 1447q77 0 164 -13q312 -47 406 -440q21 -88 21 -171q0 -257 -215 -433q45 -143 44 -265q0 -95 -21 -183q-24 -104 -52 -103q-24 1 -49 91q-45 162 -100 344
q-121 -60 -227 -60q-101 0 -188 52q-172 102 -172 212q0 41 24 83q88 155 319 179q39 4 78 4q167 0 227 -89q5 -8 29 -49q79 81 80 178q0 62 -31 131q-101 222 -263 220q-161 -1 -267 -100q-84 -78 -152 -78q-18 0 -34 5q-81 25 -85 153q-3 75 17 111q58 106 194 167
q121 54 253 54z" />
    <glyph glyph-name="he" unicode="&#x5d4;" horiz-adv-x="1053" 
d="M489 1184q-204 56 -291 56q-68 0 -130 -60t-62 -127q0 -31 17 -64q38 -74 183 -74q24 0 71.5 4t71.5 4q186 0 316 -143q150 -165 143 -496q-7 -307 56 -310q80 -3 145 337q19 99 19 196q0 194 -83 351q-124 235 -456 326zM229 621q-71 -19 -92 -49q-14 -19 -18 -77
q-8 -98 93 -144q83 -38 83 -149q0 -19 -4.5 -56.5t-4.5 -56.5q0 -71 36 -71q8 0 21 5q74 29 110 163q11 41 11 88q0 100 -53 211q-67 141 -154 140q-14 0 -28 -4z" />
    <glyph glyph-name="vav" unicode="&#x5d5;" horiz-adv-x="388" 
d="M61 1240q68 35 102 35q19 0 52 -12q98 -36 133 -244q12 -69 22 -292q8 -172 8 -290q0 -114 -7 -196q-14 -168 -34 -235q-11 -36 -31 -36t-51 37q-49 58 -62 88q-15 35 -15 104q0 54 9 214q2 35 2 65q0 136 -30 297q-37 201 -112 309q-35 51 -35 87q0 44 49 69z" />
    <glyph glyph-name="zayin" unicode="&#x5d6;" horiz-adv-x="1408" 
d="M502 1198q-113 -109 -189 -196q-48 -55 -48 -102q0 -29 18 -55q31 -46 98 -46q35 0 81 13q484 -35 651 -184q63 -56 92 -151q6 -20 6 -38q0 -72 -89 -130q-112 -72 -295 -78q-146 -4 -365 37q-237 45 -346 107q-46 26 -65 26q-12 0 -12 -12q0 -105 157 -214
q113 -79 329 -118q178 -32 353 -27q442 14 514 317q13 55 13 111q0 100 -50 180q-67 106 -128 161q-65 59 -176 107q-104 45 -408 105q241 220 241 306q0 19 -10 30q-63 70 -125 66q-62 -3 -98 -54.5t-149 -160.5z" />
    <glyph glyph-name="het" unicode="&#x5d7;" horiz-adv-x="1216" 
d="M438 1207q-124 -22 -249 -45q-174 -47 -182 -138q-6 -64 30 -89q25 -17 51 -17q12 0 24 3q4 -134 4 -254q0 -243 -15 -423q-6 -72 -6 -118q0 -133 40 -133q5 0 10 2q84 32 126 145q25 66 43 196q24 169 31 579q153 49 263 49q109 0 174 -48q130 -96 152 -225
q13 -75 13 -145q0 -50 -7 -102q-12 -92 -29 -239q-3 -27 -3 -42q0 -79 45 -85q81 -12 159 172q60 140 73 249q7 57 7 109q0 123 -35 247q-50 178 -221 296q-112 78 -292 78q-94 0 -206 -22z" />
    <glyph glyph-name="tet" unicode="&#x5d8;" horiz-adv-x="903" 
d="M821 376q28 0 69 -49q15 -18 15 -48q0 -76 -101 -223q-109 -159 -280 -159q-51 0 -107 14q-246 62 -347 370q-55 167 -55 361q0 168 39 352q86 405 340 473q97 26 176 26q123 0 194 -66q116 -108 112 -213q-3 -63 -24 -63q-14 0 -37 31q-65 87 -202 87q-144 0 -248 -152
q-92 -135 -111 -309q-10 -90 -10 -171q0 -128 24 -235q40 -176 162 -236q43 -21 79 -21q70 0 124 74q115 157 188 157z" />
    <glyph glyph-name="yod" unicode="&#x5d9;" horiz-adv-x="354" 
d="M159 1191q-89 24 -143 -66q-11 -18 -11 -45q0 -65 70 -173q42 -67 56 -113q24 -79 36 -107q37 -84 87 -84q88 0 88 115q0 37 -6 82q-38 281 -104 347q-34 34 -73 44z" />
    <glyph glyph-name="kaffinal" unicode="&#x5da;" horiz-adv-x="885" 
d="M92 1177q-137 -19 -137 -52q0 -11 18 -40q40 -65 123 -102q51 -20 152 -63q124 -55 203 -144q46 -52 46 -84q0 -21 -19 -33q-316 -82 -377 -151q-42 -48 -42 -144q0 -160 134 -589q94 -302 212 -421q101 -102 165 -102q44 0 44 48q0 65 -69 214q-113 242 -181 510
q-42 164 -42 236q0 48 18 59q51 30 150 61q118 36 155 54q75 36 144 129q31 42 31 99q0 68 -44 158q-80 165 -302 272q-182 88 -325 88q-36 0 -57 -3z" />
    <glyph glyph-name="kaf" unicode="&#x5db;" horiz-adv-x="1005" 
d="M540 1113q-181 58 -238 58q-17 0 -46 -6q-73 -15 -92 -72q-8 -24 -8 -46q0 -32 18 -69q23 -47 162 -90q211 -65 258 -86q145 -65 182 -169q19 -53 19 -102q0 -82 -57 -145q-77 -84 -239 -84q-31 0 -64 3q-212 19 -267 39q-41 15 -89 15q-17 0 -34 -2q-35 -4 -35 -33
t34 -85q68 -111 290 -149q94 -16 171 -16q123 0 234 34q184 56 238 239q41 139 41 259q0 354 -478 507z" />
    <glyph glyph-name="lamed" unicode="&#x5dc;" horiz-adv-x="688" 
d="M130 418q-33 261 -65 470q-21 136 -21 269q0 128 18 260q66 484 335 484q43 0 95 -14q153 -41 153 -253q0 -33 -5 -78q-31 -284 -126 -390q-64 -72 -88 -72q-11 0 -12 16q-4 52 41 197q29 94 29 172q0 42 -9 82q-19 84 -74 84q-16 0 -35 -7q-83 -31 -110 -244
q-16 -128 -16 -240q0 -85 9 -174q21 -208 75 -510q29 -162 29 -264q0 -94 -24 -138q-51 -94 -128 -94q-78 0 -128 81q-29 47 -29 124q0 56 14 122q20 96 72 117z" />
    <glyph glyph-name="memfinal" unicode="&#x5dd;" horiz-adv-x="1564" 
d="M589 829l4 -2q63 -41 207 -207q125 -144 221 -175q37 -12 74 -12q69 0 139 40q108 61 120 181q12 119 -150 207q-109 59 -245 60q-62 0 -135 -14q-176 -34 -235 -78zM518 590q-19 11 -31 23q-22 -43 -58 -167q-34 -118 -76 -191q-70 -121 -154 -161q-36 -17 -67 -17
q-28 0 -63 17q-40 20 -40 44q0 16 25 31q104 60 165 194q37 80 87 266q49 181 124 216q22 135 247 203q139 42 346 44q181 2 349 -138q175 -146 177 -324q2 -151 -181 -295q-118 -93 -243 -93q-72 0 -147 30q-163 65 -245 133q-94 93 -187 187l-5 4q-3 -11 -11 -11
q-5 0 -12 5z" />
    <glyph glyph-name="mem" unicode="&#x5de;" horiz-adv-x="1135" 
d="M1007 1366q-37 -12 -71 -29q-74 -37 -149 -377q-20 -89 -73 -403q-34 121 -106 362q-90 278 -183 267q-135 -16 -185 -109q-17 -32 -65 -229q-62 -256 -120 -471q-42 -156 -42 -220q0 -53 39 -53q26 0 66 25q99 61 203 418q27 94 70 340q33 -128 104 -382
q97 -330 165 -334q97 -5 149 72q26 39 67 168q3 10 88 396q66 302 110 343q58 54 60 117t-44 87q-31 16 -58 16q-13 0 -25 -4z" />
    <glyph glyph-name="nunfinal" unicode="&#x5df;" horiz-adv-x="565" 
d="M270 1275q-60 48 -99 48q-21 0 -66 -18q-85 -34 -78 -132q4 -55 52 -140q75 -133 95 -178q62 -144 71 -268q10 -214 35 -641q32 -449 159 -566q38 -35 62 -35q42 0 42 109q0 55 -10 132q-19 149 -30 679q-8 420 -77 670q-76 276 -156 340z" />
    <glyph glyph-name="nun" unicode="&#x5e0;" horiz-adv-x="843" 
d="M681 1362q-64 -8 -78 -100q-3 -21 -2 -143q1 -166 7 -275q1 -20 1 -74q0 -81 -6 -159q-18 -236 -112 -335q-55 -58 -232 -51q-72 3 -181 28q-26 6 -42 6q-34 0 -34 -23q0 -16 15 -42q93 -160 360 -160q92 0 176 28q157 52 217 346q31 152 28 529l-2 268q0 58 -27 106
q-32 58 -88 51z" />
    <glyph glyph-name="samekh" unicode="&#x5e1;" horiz-adv-x="949" 
d="M280 1257q53 24 118 24q129 0 259 -82q272 -171 281 -554q5 -221 -140 -338q-116 -93 -261 -93q-36 0 -79 7q-181 29 -296 178q-100 129 -132 325q-8 49 -8 94q0 121 53 238q73 162 125 180q15 5 30 5q37 0 69 -30q46 -42 49 -68q-8 -12 -56 -109q-68 -138 -68 -250
q0 -124 64 -221q94 -143 211 -143q53 0 111 29q85 43 113 158q8 33 8 67q0 94 -55 216q-75 167 -202 190q-55 10 -105 10q-43 0 -94.5 -18t-65.5 -18q-19 0 -34 53q-5 17 -5 31q0 69 110 119z" />
    <glyph glyph-name="ayin" unicode="&#x5e2;" horiz-adv-x="1083" 
d="M496 843q-128 -141 -179 -273q-28 -72 -28 -132q0 -64 31 -112q35 -56 96 -56q44 0 102 30q136 70 138 189q2 120 -131 315q-11 16 -29 39zM952 1307q80 -15 94 -87q3 -16 3 -29q0 -48 -39 -63q-26 -10 -51 -10q-22 0 -42 8q-10 4 -24 4q-93 -1 -256 -147q28 -32 79 -95
q166 -204 166 -382q0 -62 -19 -119q-77 -229 -319 -293q-76 -20 -142 -20q-136 0 -209 92q-107 135 -116 262q-13 196 273 554l12 15q-81 77 -164 134q-167 113 -167 199q0 13 5 28q32 95 94 97q53 2 74 -31q34 -53 54 -68q34 -25 135 -111q41 -34 102 -100q25 23 51 43
q81 63 193 98q121 38 213 21z" />
    <glyph glyph-name="pefinal" unicode="&#x5e3;" horiz-adv-x="983" 
d="M280 1113q-5 46 -8 91q-54 -36 -54 -58q1 -24 62 -33zM488 1536q28 19 59 43q114 90 177 209q19 36 19 57t-22 21q-24 0 -73 -23q-133 -63 -159 -298zM355 650q-5 35 -53 306q-213 -9 -272 142q-13 33 -13 64q0 118 184 211q42 21 68 35q3 66 12 137q37 288 203 413
q123 93 262 93q48 0 98 -11q112 -25 112 -131q0 -76 -59 -195q-130 -261 -418 -406q1 -106 11 -208q118 -23 117 -68q0 -34 -100 -54q26 -164 87 -378q41 -145 42 -249q0 -86 -31 -145q-39 -74 -118 -74q-53 0 -126 39q-180 97 -180 238q0 109 93 195q44 41 81 46z" />
    <glyph glyph-name="pe" unicode="&#x5e4;" horiz-adv-x="1056" 
d="M253 1279q-116 -16 -146 -27q-85 -31 -82 -104q3 -66 65 -100q32 -17 62 -17q20 0 68 18.5t81 18.5q43 0 90 -9q139 -26 209 -58q115 -52 166 -164q37 -82 50 -234q1 -12 1 -33q0 -140 -103 -242q-63 -63 -138 -63q-60 0 -127 42q-149 94 -170 144q-6 14 -6 27
q0 32 56 32q49 0 136 -20q31 -7 51 -7q47 0 47 36q0 7 -1 16q-26 116 -275 162q-16 3 -31 3q-55 0 -111 -37q-89 -59 -89 -142q0 -66 55 -172q67 -130 218 -204q124 -61 234 -61q136 0 233 61q65 41 135 138q55 77 81 260q8 57 8 115q0 119 -37 225q-51 147 -173 237
q-99 73 -269 127q-114 36 -216 36q-43 0 -72 -4z" />
    <glyph glyph-name="tsadifinal" unicode="&#x5e5;" horiz-adv-x="1341" 
d="M722 926l18 8q280 125 340 376q30 126 30 208q0 142 -100 141q-51 0 -123 -42q-134 -78 -154 -349q-12 -160 -12 -274q0 -36 1 -68zM604 222q-3 152 -37 331q-13 67 -24 144q-62 -8 -123 -8q-115 0 -221 30q-169 48 -169 126q0 8 3 17q20 90 115 102q24 3 43 3
q63 0 99 -27q18 -14 18 -24q0 -15 -49 -19q-72 -6 -72 -26q0 -28 143 -44q74 -8 195 27q-14 154 -14 283q0 133 13 264q22 222 211 370q127 100 275 100q70 0 142 -22q170 -52 170 -274q0 -76 -19 -169q-76 -373 -287 -517q-141 -97 -279 -145q18 -144 55 -362
q26 -153 26 -257q0 -214 -99 -214q-30 0 -70 25q-96 60 -96 134t51 152z" />
    <glyph glyph-name="tsadi" unicode="&#x5e6;" horiz-adv-x="1140" 
d="M378 1293q94 14 174 23q46 5 115 5q52 0 100 -3q123 -8 215 -89q89 -78 120 -200q11 -43 11 -88q0 -86 -154.5 -206.5t-154.5 -206.5q0 -8 76 -73q84 -71 125 -207q9 -30 9 -58q0 -108 -119 -217q-129 -118 -322 -118q-33 0 -65 3q-177 17 -271 58q-131 57 -195 186
q-30 60 -30 86q0 15 10 21q31 18 73 -15q38 -30 88 -64q86 -58 271 -64q183 -6 267 79q49 49 49 96q0 33 -24 63q-43 54 -85 76q-7 4 -104 42q-26 14 -90 18t-86 16q-39 20 -42 81q-5 92 49 113q31 12 64 12q21 0 41 -5q50 -13 95 -18q70 -8 180 87.5t114 166.5
q5 90 -69 151q-62 51 -126 51q-13 0 -25 -2q-74 -12 -179 -20q-27 -2 -39 -2q-158 0 -158 107q0 10 2 25q10 77 90 90z" />
    <glyph glyph-name="qof" unicode="&#x5e7;" horiz-adv-x="950" 
d="M55 1173q20 62 74 86q37 17 151 36q59 10 120 10q136 0 268 -52q190 -75 227 -286q12 -69 12 -146q0 -151 -49 -321q-58 -201 -101 -201q-12 0 -23 16q-51 71 -50 133q1 70 12 246q2 31 2 54q0 148 -107 217q-129 83 -268 83q-31 0 -61 -6q-65 -13 -112 -13
q-107 0 -107 83q0 24 12 61zM277 853q35 13 56 13q25 0 67 -25q33 -20 33 -97q0 -65 -21 -161q-49 -225 -60 -400q-3 -48 -3 -99q0 -158 26 -414q11 -108 11 -186q0 -144 -44 -134q-100 22 -148 442q-29 254 -29 507q0 30 -3 150q-2 93 0 151q9 213 115 253z" />
    <glyph glyph-name="resh" unicode="&#x5e8;" horiz-adv-x="1116" 
d="M298 1286q-116 -19 -168 -40q-106 -43 -106 -125q1 -89 72 -89q25 0 57 8q77 19 225 21q151 2 286 -100q123 -93 123 -296q0 -29 -1 -45q-15 -239 -60 -418q-22 -87 -22 -133q0 -69 41 -69q50 0 129 140q88 156 132 324q26 99 26 214q0 74 -12 159q-25 175 -162 306.5
t-313 148.5q-50 5 -107 5q-74 0 -140 -11z" />
    <glyph glyph-name="shin" unicode="&#x5e9;" horiz-adv-x="1005" 
d="M262 768q65 59 130 137q82 99 104 213q9 47 9 77q0 40 -17 41q-71 6 -146 -110q-61 -94 -78 -176q-9 -44 -9 -90q0 -44 7 -92zM874 651q10 0 31 -11q42 -23 74 -181q7 -35 7 -73q0 -110 -76 -185q-100 -99 -278 -99q-238 0 -382 157q-115 126 -186 382q-36 130 -36 242
q0 174 84 315q138 232 410 256q22 2 33 2q168 0 168 -171q0 -65 -25 -156q-96 -350 -280 -510q-54 -47 -96 -75q74 -187 214 -215q56 -11 95 -11q69 0 120 34q57 39 57 105q0 12 -4.5 36t-4.5 36q0 32 21 74q25 48 54 48z" />
    <glyph glyph-name="tav" unicode="&#x5ea;" horiz-adv-x="1798" 
d="M1081 1277q-81 16 -141 6q-109 -19 -130 -107q-3 -13 -3 -26q0 -163 65 -191q0 -241 -204 -507q-211 -275 -444 -301q-202 -22 -217 -66q-4 -12 -4 -20q0 -93 215 -93q128 0 236 44q84 34 208 123q169 121 295 361.5t126 445.5q185 -41 275 -101q120 -79 164 -234
q23 -80 23 -164q0 -19 -3.5 -57t-3.5 -57q0 -88 65 -93q151 -13 151 264q0 29 -1 50q-15 316 -241 523q-159 146 -431 200z" />
    <glyph glyph-name="vavdbl" unicode="&#x5f0;" 
 />
    <glyph glyph-name="vavyod" unicode="&#x5f1;" 
 />
    <glyph glyph-name="yoddbl" unicode="&#x5f2;" 
 />
    <glyph glyph-name="geresh" unicode="&#x5f3;" 
 />
    <glyph glyph-name="gershayim" unicode="&#x5f4;" 
 />
    <glyph glyph-name="Wgrave" unicode="&#x1e80;" 
 />
    <glyph glyph-name="wgrave" unicode="&#x1e81;" 
 />
    <glyph glyph-name="Wacute" unicode="&#x1e82;" 
 />
    <glyph glyph-name="wacute" unicode="&#x1e83;" 
 />
    <glyph glyph-name="Wdieresis" unicode="&#x1e84;" 
 />
    <glyph glyph-name="wdieresis" unicode="&#x1e85;" 
 />
    <glyph glyph-name="Ygrave" unicode="&#x1ef2;" 
 />
    <glyph glyph-name="ygrave" unicode="&#x1ef3;" 
 />
    <glyph glyph-name="lefttoright" unicode="&#x200e;" 
 />
    <glyph glyph-name="righttoleft" unicode="&#x200f;" 
 />
    <glyph glyph-name="hyphenminus" unicode="&#x2010;" 
 />
    <glyph glyph-name="endash" unicode="&#x2013;" 
 />
    <glyph glyph-name="emdash" unicode="&#x2014;" 
 />
    <glyph glyph-name="quotedash" unicode="&#x2015;" 
 />
    <glyph glyph-name="underscoredbl" unicode="&#x2017;" 
 />
    <glyph glyph-name="quoteleft" unicode="&#x2018;" 
 />
    <glyph glyph-name="quoteright" unicode="&#x2019;" 
 />
    <glyph glyph-name="quotesinglbase" unicode="&#x201a;" 
 />
    <glyph glyph-name="quotereversed" unicode="&#x201b;" 
 />
    <glyph glyph-name="quotedblleft" unicode="&#x201c;" 
 />
    <glyph glyph-name="quotedblright" unicode="&#x201d;" 
 />
    <glyph glyph-name="quotedblbase" unicode="&#x201e;" 
 />
    <glyph glyph-name="dagger" unicode="&#x2020;" 
 />
    <glyph glyph-name="daggerdbl" unicode="&#x2021;" 
 />
    <glyph glyph-name="bullet" unicode="&#x2022;" 
 />
    <glyph glyph-name="ellipsis" unicode="&#x2026;" 
 />
    <glyph glyph-name="perthousand" unicode="&#x2030;" 
 />
    <glyph glyph-name="minute" unicode="&#x2032;" 
 />
    <glyph glyph-name="second" unicode="&#x2033;" 
 />
    <glyph glyph-name="guilsinglleft" unicode="&#x2039;" 
 />
    <glyph glyph-name="guilsinglright" unicode="&#x203a;" 
 />
    <glyph glyph-name="exclamdbl" unicode="&#x203c;" 
 />
    <glyph glyph-name="radicalex" unicode="&#x203e;" 
 />
    <glyph glyph-name="fraction" unicode="&#x2044;" 
 />
    <glyph glyph-name="nsuperior" unicode="&#x207f;" 
 />
    <glyph glyph-name="franc" unicode="&#x20a3;" 
 />
    <glyph glyph-name="afii08941" unicode="&#x20a4;" 
 />
    <glyph glyph-name="peseta" unicode="&#x20a7;" 
 />
    <glyph glyph-name="newsheqel" unicode="&#x20aa;" horiz-adv-x="1700" 
d="M163 454q43 208 65 274q16 46 44 75q95 97 185 131q55 20 233 46q63 9 115 9q180 0 278.5 -99t98.5 -279q0 -19 -1 -37q-10 -178 -44 -178q-6 0 -16 10q-43 44 -85 166q-47 135 -79 179q-59 82 -160 73q-238 -22 -331 -142q-75 -97 -109 -360q-46 -351 -115 -352
q-68 -1 -104 92q-14 36 -14 96q0 106 39 296zM1642 439q-32 -152 -54 -208q-14 -36 -43 -65q-97 -97 -186 -129q-59 -21 -234 -44q-77 -10 -147 -10q-151 0 -253 50q-127 62 -127 272q0 34 3 69q23 270 95 312q22 13 40 13q37 0 48 -60q8 -42 8 -94q0 -26 -6 -77.5t-6 -77.5
q0 -80 39 -153q46 -87 171 -87q5 0 31 2q215 17 311 112q93 92 118 309q32 275 101 275t104 -93q14 -38 14 -101q0 -88 -27 -215z" />
    <glyph glyph-name="afii61248" unicode="&#x2105;" 
 />
    <glyph glyph-name="afii61289" unicode="&#x2113;" 
 />
    <glyph glyph-name="afii61352" unicode="&#x2116;" 
 />
    <glyph glyph-name="trademark" unicode="&#x2122;" 
 />
    <glyph glyph-name="Ohm" unicode="&#x2126;" 
 />
    <glyph glyph-name="estimated" unicode="&#x212e;" 
 />
    <glyph glyph-name="oneeighth" unicode="&#x215b;" 
 />
    <glyph glyph-name="threeeighths" unicode="&#x215c;" 
 />
    <glyph glyph-name="fiveeighths" unicode="&#x215d;" 
 />
    <glyph glyph-name="seveneighths" unicode="&#x215e;" 
 />
    <glyph glyph-name="arrowleft" unicode="&#x2190;" 
 />
    <glyph glyph-name="arrowup" unicode="&#x2191;" 
 />
    <glyph glyph-name="arrowright" unicode="&#x2192;" 
 />
    <glyph glyph-name="arrowdown" unicode="&#x2193;" 
 />
    <glyph glyph-name="arrowboth" unicode="&#x2194;" 
 />
    <glyph glyph-name="arrowupdn" unicode="&#x2195;" 
 />
    <glyph glyph-name="arrowupdnbse" unicode="&#x21a8;" 
 />
    <glyph glyph-name="partialdiff" unicode="&#x2202;" 
 />
    <glyph glyph-name="increment" unicode="&#x2206;" 
 />
    <glyph glyph-name="product" unicode="&#x220f;" 
 />
    <glyph glyph-name="summation" unicode="&#x2211;" 
 />
    <glyph glyph-name="minus" unicode="&#x2212;" 
 />
    <glyph glyph-name="periodcentered" unicode="&#x2219;" 
 />
    <glyph glyph-name="radical" unicode="&#x221a;" 
 />
    <glyph glyph-name="infinity" unicode="&#x221e;" 
 />
    <glyph glyph-name="orthogonal" unicode="&#x221f;" 
 />
    <glyph glyph-name="intersection" unicode="&#x2229;" 
 />
    <glyph glyph-name="integral" unicode="&#x222b;" 
 />
    <glyph glyph-name="approxequal" unicode="&#x2248;" 
 />
    <glyph glyph-name="approxequal" unicode="&#x22f2;" 
 />
    <glyph glyph-name="notequal" unicode="&#x2260;" 
 />
    <glyph glyph-name="equivalence" unicode="&#x2261;" 
 />
    <glyph glyph-name="lessequal" unicode="&#x2264;" 
 />
    <glyph glyph-name="greaterequal" unicode="&#x2265;" 
 />
    <glyph glyph-name="house" unicode="&#x2302;" 
 />
    <glyph glyph-name="revlogicalnot" unicode="&#x2310;" 
 />
    <glyph glyph-name="integraltp" unicode="&#x2320;" 
 />
    <glyph glyph-name="integralbt" unicode="&#x2321;" 
 />
    <glyph glyph-name="delete" unicode="&#x2421;" 
 />
    <glyph glyph-name="SF100000" unicode="&#x2500;" 
 />
    <glyph glyph-name="SF110000" unicode="&#x2502;" 
 />
    <glyph glyph-name="SF010000" unicode="&#x250c;" 
 />
    <glyph glyph-name="SF030000" unicode="&#x2510;" 
 />
    <glyph glyph-name="SF020000" unicode="&#x2514;" 
 />
    <glyph glyph-name="SF040000" unicode="&#x2518;" 
 />
    <glyph glyph-name="SF080000" unicode="&#x251c;" 
 />
    <glyph glyph-name="SF090000" unicode="&#x2524;" 
 />
    <glyph glyph-name="SF060000" unicode="&#x252c;" 
 />
    <glyph glyph-name="SF070000" unicode="&#x2534;" 
 />
    <glyph glyph-name="SF050000" unicode="&#x253c;" 
 />
    <glyph glyph-name="SF430000" unicode="&#x2550;" 
 />
    <glyph glyph-name="SF240000" unicode="&#x2551;" 
 />
    <glyph glyph-name="SF510000" unicode="&#x2552;" 
 />
    <glyph glyph-name="SF520000" unicode="&#x2553;" 
 />
    <glyph glyph-name="SF390000" unicode="&#x2554;" 
 />
    <glyph glyph-name="SF220000" unicode="&#x2555;" 
 />
    <glyph glyph-name="SF210000" unicode="&#x2556;" 
 />
    <glyph glyph-name="SF250000" unicode="&#x2557;" 
 />
    <glyph glyph-name="SF500000" unicode="&#x2558;" 
 />
    <glyph glyph-name="SF490000" unicode="&#x2559;" 
 />
    <glyph glyph-name="SF380000" unicode="&#x255a;" 
 />
    <glyph glyph-name="SF280000" unicode="&#x255b;" 
 />
    <glyph glyph-name="SF270000" unicode="&#x255c;" 
 />
    <glyph glyph-name="SF260000" unicode="&#x255d;" 
 />
    <glyph glyph-name="SF360000" unicode="&#x255e;" 
 />
    <glyph glyph-name="SF370000" unicode="&#x255f;" 
 />
    <glyph glyph-name="SF420000" unicode="&#x2560;" 
 />
    <glyph glyph-name="SF190000" unicode="&#x2561;" 
 />
    <glyph glyph-name="SF200000" unicode="&#x2562;" 
 />
    <glyph glyph-name="SF230000" unicode="&#x2563;" 
 />
    <glyph glyph-name="SF470000" unicode="&#x2564;" 
 />
    <glyph glyph-name="SF480000" unicode="&#x2565;" 
 />
    <glyph glyph-name="SF410000" unicode="&#x2566;" 
 />
    <glyph glyph-name="SF450000" unicode="&#x2567;" 
 />
    <glyph glyph-name="SF460000" unicode="&#x2568;" 
 />
    <glyph glyph-name="SF400000" unicode="&#x2569;" 
 />
    <glyph glyph-name="SF540000" unicode="&#x256a;" 
 />
    <glyph glyph-name="SF530000" unicode="&#x256b;" 
 />
    <glyph glyph-name="SF440000" unicode="&#x256c;" 
 />
    <glyph glyph-name="upblock" unicode="&#x2580;" 
 />
    <glyph glyph-name="dnblock" unicode="&#x2584;" 
 />
    <glyph glyph-name="block" unicode="&#x2588;" 
 />
    <glyph glyph-name="lfblock" unicode="&#x258c;" 
 />
    <glyph glyph-name="rtblock" unicode="&#x2590;" 
 />
    <glyph glyph-name="ltshade" unicode="&#x2591;" 
 />
    <glyph glyph-name="shade" unicode="&#x2592;" 
 />
    <glyph glyph-name="dkshade" unicode="&#x2593;" 
 />
    <glyph glyph-name="filledbox" unicode="&#x25a0;" 
 />
    <glyph glyph-name="H22073" unicode="&#x25a1;" 
 />
    <glyph glyph-name="H18543" unicode="&#x25aa;" 
 />
    <glyph glyph-name="H18551" unicode="&#x25ab;" 
 />
    <glyph glyph-name="filledrect" unicode="&#x25ac;" 
 />
    <glyph glyph-name="triagup" unicode="&#x25b2;" 
 />
    <glyph glyph-name="triagrt" unicode="&#x25ba;" 
 />
    <glyph glyph-name="triagdn" unicode="&#x25bc;" 
 />
    <glyph glyph-name="triaglf" unicode="&#x25c4;" 
 />
    <glyph glyph-name="lozenge" unicode="&#x25ca;" 
 />
    <glyph glyph-name="circle" unicode="&#x25cb;" 
 />
    <glyph glyph-name="H18533" unicode="&#x25cf;" 
 />
    <glyph glyph-name="invbullet" unicode="&#x25d8;" 
 />
    <glyph glyph-name="invcircle" unicode="&#x25d9;" 
 />
    <glyph glyph-name="openbullet" unicode="&#x25e6;" 
 />
    <glyph glyph-name="smileface" unicode="&#x263a;" 
 />
    <glyph glyph-name="invsmileface" unicode="&#x263b;" 
 />
    <glyph glyph-name="sun" unicode="&#x263c;" 
 />
    <glyph glyph-name="female" unicode="&#x2640;" 
 />
    <glyph glyph-name="male" unicode="&#x2642;" 
 />
    <glyph glyph-name="spade" unicode="&#x2660;" 
 />
    <glyph glyph-name="club" unicode="&#x2663;" 
 />
    <glyph glyph-name="heart" unicode="&#x2665;" 
 />
    <glyph glyph-name="diamond" unicode="&#x2666;" 
 />
    <glyph glyph-name="musicalnote" unicode="&#x266a;" 
 />
    <glyph glyph-name="musicalnotedbl" unicode="&#x266b;" 
 />
    <glyph glyph-name="finalkafwithsheva" unicode="&#xe802;" 
 />
    <glyph glyph-name="finalkafwithqamats" unicode="&#xe803;" 
 />
    <glyph glyph-name="lamedwithholam" unicode="&#xe804;" 
 />
    <glyph glyph-name="lamedwithdageshandholam" unicode="&#xe805;" 
 />
    <glyph glyph-name="fi" unicode="&#xf001;" 
 />
    <glyph glyph-name="fl" unicode="&#xf002;" 
 />
    <glyph glyph-name="fi2" unicode="&#xfb01;" 
 />
    <glyph glyph-name="fl2" unicode="&#xfb02;" 
 />
    <glyph glyph-name="alternativeayin" unicode="&#xfb20;" 
 />
    <glyph glyph-name="shinwithshindot" unicode="&#xfb2a;" 
 />
    <glyph glyph-name="shinwithsindot" unicode="&#xfb2b;" 
 />
    <glyph glyph-name="shinwithdageshandshindot" unicode="&#xfb2c;" 
 />
    <glyph glyph-name="shinwithdageshandsindot" unicode="&#xfb2d;" 
 />
    <glyph glyph-name="alefwithpatah" unicode="&#xfb2e;" 
 />
    <glyph glyph-name="alefwithqamats" unicode="&#xfb2f;" 
 />
    <glyph glyph-name="alefwithmapiq" unicode="&#xfb30;" 
 />
    <glyph glyph-name="betwithdagesh" unicode="&#xfb31;" 
 />
    <glyph glyph-name="gimelwithdagesh" unicode="&#xfb32;" 
 />
    <glyph glyph-name="daletwithdagesh" unicode="&#xfb33;" 
 />
    <glyph glyph-name="hewithmapiq" unicode="&#xfb34;" 
 />
    <glyph glyph-name="vavwithdagesh" unicode="&#xfb35;" 
 />
    <glyph glyph-name="zayinwithdagesh" unicode="&#xfb36;" 
 />
    <glyph glyph-name="tetwithdagesh" unicode="&#xfb38;" 
 />
    <glyph glyph-name="yodwithdagesh" unicode="&#xfb39;" 
 />
    <glyph glyph-name="finalkafwithdagesh" unicode="&#xfb3a;" 
 />
    <glyph glyph-name="kafwithdagesh" unicode="&#xfb3b;" 
 />
    <glyph glyph-name="lamedwithdagesh" unicode="&#xfb3c;" 
 />
    <glyph glyph-name="memwithdagesh" unicode="&#xfb3e;" 
 />
    <glyph glyph-name="nunwithdagesh" unicode="&#xfb40;" 
 />
    <glyph glyph-name="samekhwithdagesh" unicode="&#xfb41;" 
 />
    <glyph glyph-name="finalpewithdagesh" unicode="&#xfb43;" 
 />
    <glyph glyph-name="pewithdagesh" unicode="&#xfb44;" 
 />
    <glyph glyph-name="tsadiwithdagesh" unicode="&#xfb46;" 
 />
    <glyph glyph-name="qofwithdagesh" unicode="&#xfb47;" 
 />
    <glyph glyph-name="reshwithdagesh" unicode="&#xfb48;" 
 />
    <glyph glyph-name="shinwithdagesh" unicode="&#xfb49;" 
 />
    <glyph glyph-name="tavwithdagesh" unicode="&#xfb4a;" 
 />
    <glyph glyph-name="vavwithholam" unicode="&#xfb4b;" 
 />
    <glyph glyph-name="betwithrafe" unicode="&#xfb4c;" 
 />
    <glyph glyph-name="kafwithrafe" unicode="&#xfb4d;" 
 />
    <glyph glyph-name="pewithrafe" unicode="&#xfb4e;" 
 />
    <glyph glyph-name="aleflamed" unicode="&#xfb4f;" 
 />
    <glyph glyph-name="glyph98" 
 />
    <glyph glyph-name="glyph99" 
 />
    <glyph glyph-name="glyph100" 
 />
    <glyph glyph-name="glyph101" 
 />
    <glyph glyph-name="glyph102" 
 />
    <glyph glyph-name="glyph103" 
 />
    <glyph glyph-name="glyph104" 
 />
    <glyph glyph-name="glyph105" 
 />
    <glyph glyph-name="glyph106" 
 />
    <glyph glyph-name="glyph107" 
 />
    <glyph glyph-name="glyph108" 
 />
    <glyph glyph-name="glyph109" 
 />
    <glyph glyph-name="glyph110" 
 />
    <glyph glyph-name="glyph111" 
 />
    <glyph glyph-name="glyph112" 
 />
    <glyph glyph-name="glyph113" 
 />
    <glyph glyph-name="glyph114" 
 />
    <glyph glyph-name="glyph115" 
 />
    <glyph glyph-name="glyph116" 
 />
    <glyph glyph-name="glyph117" 
 />
    <glyph glyph-name="glyph118" 
 />
    <glyph glyph-name="glyph119" 
 />
    <glyph glyph-name="glyph120" 
 />
    <glyph glyph-name="glyph121" 
 />
    <glyph glyph-name="glyph122" 
 />
    <glyph glyph-name="glyph123" 
 />
    <glyph glyph-name="glyph124" 
 />
    <glyph glyph-name="glyph125" 
 />
    <glyph glyph-name="glyph126" 
 />
    <glyph glyph-name="glyph127" 
 />
    <glyph glyph-name="glyph128" 
 />
    <glyph glyph-name="glyph129" 
 />
    <glyph glyph-name="glyph130" 
 />
    <glyph glyph-name="glyph131" 
 />
    <glyph glyph-name="glyph144" 
 />
    <glyph glyph-name="mu1" 
 />
    <glyph glyph-name="glyph355" 
 />
    <glyph glyph-name="glyph372" 
 />
    <glyph glyph-name="glyph445" 
 />
    <glyph glyph-name="glyph540" 
 />
    <glyph glyph-name="glyph549" 
 />
    <glyph glyph-name="afii00208" 
 />
    <glyph glyph-name="glyph561" 
 />
    <glyph glyph-name="glyph575" 
 />
    <glyph glyph-name="glyph579" 
 />
    <glyph glyph-name="glyph586" 
 />
    <glyph glyph-name="glyph591" 
 />
    <glyph glyph-name="glyph599" 
 />
    <glyph glyph-name="glyph605" 
 />
    <glyph glyph-name="glyph617" 
 />
    <glyph glyph-name="glyph619" 
 />
    <glyph glyph-name="glyph623" 
 />
    <glyph glyph-name="glyph664" 
 />
    <glyph glyph-name="glyph688" 
 />
    <glyph glyph-name="glyph698" 
 />
  </font>
</defs>
</svg>
