<svg xmlns="http://www.w3.org/2000/svg" width="37" height="48" viewBox="0 0 37 48">
  <path d="M19.333,12.565c0-.568.015-1.135-0.009-1.7a1.57,1.57,0,0,0-.181-0.557,0.451,0.451,0,0,0-.452-0.263,14.672,14.672,0,0,0-7.416,1.929,13.993,13.993,0,0,0-6.135,7.4A14.694,14.694,0,0,0,4.505,27.5a14.446,14.446,0,0,0,3.1,6.532c0.253,0.3.264,0.343,0.031,0.674a5.7,5.7,0,0,1-.525.639c-0.44.466-.89,0.921-1.338,1.378-0.087.089-.176,0.177-0.27,0.258-0.608.521-.669,0.51-1.178-0.107a18.784,18.784,0,0,1-3.61-6.9A19.366,19.366,0,0,1-.005,23.89a19.625,19.625,0,0,1,2.639-9.176A18.958,18.958,0,0,1,7.912,8.837a18.407,18.407,0,0,1,7.845-3.366c0.922-.158,1.865-0.191,2.8-0.265a0.667,0.667,0,0,0,.763-0.714,5.085,5.085,0,0,0,.046-0.673c0-1.036,0-2.074,0-3.11A0.616,0.616,0,0,1,19.633.028a0.627,0.627,0,0,1,.661.291q3.1,3.006,6.2,6.017a1.186,1.186,0,0,1,0,1.923q-3.04,2.951-6.079,5.907a2.838,2.838,0,0,1-.381.329,0.37,0.37,0,0,1-.632-0.284,2.094,2.094,0,0,1-.025-0.349c0-.433,0-0.866,0-1.3H19.333ZM17.921,36.056c0,0.828,0,1.656,0,2.485a1.276,1.276,0,0,0,.05.264,0.441,0.441,0,0,0,.507.382,14.244,14.244,0,0,0,13.07-8.934,14.719,14.719,0,0,0,.962-7.86,14.465,14.465,0,0,0-3.255-7.346,0.426,0.426,0,0,1-.033-0.6A3.75,3.75,0,0,1,29.56,14c0.59-.618,1.176-1.24,1.788-1.834s0.7-.573,1.228.067a19.017,19.017,0,0,1,3.872,7.738,19.367,19.367,0,0,1,.339,7.429,18.632,18.632,0,0,1-3.819,8.974,17.733,17.733,0,0,1-9.317,6.295,18.206,18.206,0,0,1-5.1.667,0.481,0.481,0,0,0-.555.407,4.53,4.53,0,0,0-.118.85c-0.016.883,0,1.767-.009,2.65a0.662,0.662,0,0,1-.246.717,0.615,0.615,0,0,1-.68-0.294q-3.129-3.034-6.251-6.073a1.152,1.152,0,0,1,.015-1.809q3.105-3.021,6.214-6.036a1.92,1.92,0,0,1,.348-0.285,0.355,0.355,0,0,1,.571.272,2.167,2.167,0,0,1,.029.4c0,0.64,0,1.28,0,1.919h0.052Zm-4.543-8.43c0.331,0,.662,0,0.994,0,0.605,0,1.21-.01,1.815-0.013a3.465,3.465,0,0,1,.42.016,1.329,1.329,0,0,1,1.229,1.443,1.353,1.353,0,0,1-1.4,1.224C16,30.29,15.56,30.284,15.122,30.284c-1.368,0-2.736,0-4.1,0a7.466,7.466,0,0,1-.891-0.063,1.546,1.546,0,0,1-.945-2.485A6.25,6.25,0,0,1,9.915,27c1.035-.9,2.092-1.782,3.113-2.7a4.584,4.584,0,0,0,1.324-1.89,1.912,1.912,0,0,0,.093-1.139,1.149,1.149,0,0,0-1.032-.931,1.2,1.2,0,0,0-1.3.652c-0.154.311-.255,0.651-0.4,0.97a1.413,1.413,0,0,1-2.04.673,1.594,1.594,0,0,1-.611-1.642,4.144,4.144,0,0,1,3.786-3.44,4.876,4.876,0,0,1,2.922.594,4.021,4.021,0,0,1,1.466,5.211,8.634,8.634,0,0,1-2.231,2.806c-0.483.431-.993,0.83-1.49,1.244-0.057.048-.112,0.1-0.167,0.149Zm13.01-5.436c0,0.946.007,1.892,0,2.838,0,0.248.054,0.35,0.316,0.354a2.1,2.1,0,0,1,.741.142,1.152,1.152,0,0,1,.676,1.15,1.108,1.108,0,0,1-.777,1.046,1.844,1.844,0,0,1-.644.1c-0.279-.013-0.335.1-0.331,0.359a4.978,4.978,0,0,1-.064,1.047,1.466,1.466,0,0,1-1.551,1.244,1.559,1.559,0,0,1-1.417-1.457,8.067,8.067,0,0,1-.013-0.919,0.209,0.209,0,0,0-.257-0.259q-1.657.014-3.315,0a1.181,1.181,0,0,1-1.3-.913,2.911,2.911,0,0,1,.309-2.462c1.432-2.038,2.859-4.08,4.3-6.109a1.939,1.939,0,0,1,2.533-.5,1.59,1.59,0,0,1,.776,1.391c0.022,0.982.006,1.964,0.006,2.946h0.015Zm-2.8-.651-0.064-.016L21.139,25.3a0.691,0.691,0,0,0,.146.05c0.649,0,1.3,0,1.947,0,0.181,0,.188-0.116.195-0.249q0.079-1.593.159-3.185C23.592,21.8,23.587,21.666,23.587,21.539Z"/>
</svg>
