<svg xmlns="http://www.w3.org/2000/svg" width="19" height="18" viewBox="0 0 19 18">
  <defs>
    <style>
      .cls-1 {
        fill: #61900b;
        fill-rule: evenodd;
      }
    </style>
  </defs>
  <path id="basket" class="cls-1" d="M19.006,3.589c-0.174.521-.341,1.044-0.525,1.562-0.554,1.553-1.12,3.1-1.671,4.656a0.931,0.931,0,0,1-.881.619q-5.116-.011-10.233,0H5.541l0.421,2.009H6.1q4.7,0,9.4,0a0.81,0.81,0,0,1,.627.231,0.754,0.754,0,0,1,.176.824,0.735,0.735,0,0,1-.665.506C15.577,14,15.522,14,15.467,14q-4.937,0-9.873,0a1.853,1.853,0,0,1-.46-0.059,0.728,0.728,0,0,1-.558-0.579c-0.159-.73-0.311-1.462-0.464-2.193L2.878,5.3,2.112,1.663C2.106,1.635,2.1,1.606,2.09,1.566h-0.1c-0.411,0-.822,0-1.233,0A0.744,0.744,0,0,1,.066,1.147,0.755,0.755,0,0,1,.095.364,0.75,0.75,0,0,1,.572.02C0.594,0.015.615,0.007,0.636,0H2.811a2.2,2.2,0,0,1,.324.146,0.948,0.948,0,0,1,.373.632c0.131,0.589.253,1.18,0.372,1.771a0.14,0.14,0,0,0,.166.139q7.031,0,14.062,0c0.049,0,.1,0,0.146,0a0.767,0.767,0,0,1,.719.557l0.034,0.112V3.589ZM6.75,18.007A1.567,1.567,0,1,1,8.3,16.446,1.559,1.559,0,0,1,6.75,18.007Zm8.922-1.566a1.55,1.55,0,1,1-1.547-1.568A1.555,1.555,0,0,1,15.672,16.441Z"/>
</svg>
