<svg xmlns="http://www.w3.org/2000/svg" width="55" height="38" viewBox="0 0 55 38">
  <path  d="M54.995,5.978V32.006a1.117,1.117,0,0,0-.032.151A6.057,6.057,0,0,1,53.6,35.6a6.232,6.232,0,0,1-5.05,2.41q-21.056,0-42.112,0H6.282a6.17,6.17,0,0,1-4.269-1.731A6.2,6.2,0,0,1,0,31.6Q0,19.008,0,6.414c0-.081,0-0.162,0-0.244A5.866,5.866,0,0,1,.682,3.514,6.235,6.235,0,0,1,6.486,0Q27.489-.017,48.493,0A6.395,6.395,0,0,1,54.854,5.09C54.917,5.382,54.949,5.681,54.995,5.978ZM19.036,4.227H18.852q-6.254,0-12.508,0a2.213,2.213,0,0,0-.551.067A2.065,2.065,0,0,0,4.231,6.4q0,12.595,0,25.19c0,0.053,0,.1,0,0.157a2.065,2.065,0,0,0,2.075,2.034q6.289,0.008,12.578,0c0.045,0,.09-0.007.154-0.012V25.355h4.233v8.431h0.174q12.569,0,25.139,0a2.416,2.416,0,0,0,.552-0.056,2.054,2.054,0,0,0,1.62-2.125q0-5.141,0-10.278v-0.21H38.085V16.886H50.757V16.7q0-5.165,0-10.331a2.121,2.121,0,0,0-.041-0.448,2.048,2.048,0,0,0-2.1-1.693H23.457c-0.061,0-.122.006-0.2,0.009v4.2H19.036V4.227ZM31.689,27.057c-1.385.262-2.762,0.525-4.145,0.787-0.08-.285-0.144-0.56-0.234-0.827a7.578,7.578,0,0,0-2.01-3.051,13.669,13.669,0,0,0-4.071-2.632,0.322,0.322,0,0,0-.226,0,11.827,11.827,0,0,0-4.459,2.989,7.048,7.048,0,0,0-1.753,3.425,0.712,0.712,0,0,1-.03.082l-4.149-.757a11.515,11.515,0,0,1,3.1-5.957c-0.162,0-.276,0-0.391,0a7.479,7.479,0,0,1-2.179-.2A6.329,6.329,0,0,1,9.9,9.1a6.324,6.324,0,0,1,3.934-.562,8.259,8.259,0,0,1,4.309,2.233,16.938,16.938,0,0,1,2.885,3.562c0.033,0.053.069,0.106,0.12,0.183,0.095-.149.179-0.284,0.265-0.415a15.676,15.676,0,0,1,3.593-4.041A7.992,7.992,0,0,1,28.22,8.581a6.375,6.375,0,0,1,7.6,4.944,6.058,6.058,0,0,1-1.587,5.563,6.036,6.036,0,0,1-3.68,1.946,17.155,17.155,0,0,1-1.739.079c-0.08,0-.16,0-0.293,0A11.555,11.555,0,0,1,31.689,27.057ZM24.752,16.884c0.045,0,.08.006,0.114,0.006q2.372,0,4.743,0a2.57,2.57,0,0,0,.433-0.039A2.069,2.069,0,0,0,31.718,15a2.1,2.1,0,0,0-1.261-2.161,2.426,2.426,0,0,0-2.2.234,8.1,8.1,0,0,0-2.16,1.818A6.955,6.955,0,0,0,24.752,16.884Zm-7.179,0c-0.153-.277-0.277-0.545-0.441-0.788a11.09,11.09,0,0,0-1.9-2.17,5.332,5.332,0,0,0-1.855-1.138A2.106,2.106,0,0,0,10.614,15.2a2.069,2.069,0,0,0,2.105,1.69q2.336,0.007,4.672,0C17.441,16.89,17.491,16.885,17.573,16.88Z"/>
</svg>
