<svg xmlns="http://www.w3.org/2000/svg" xmlns:xlink="http://www.w3.org/1999/xlink" width="12" height="11" viewBox="0 0 12 11">
  <defs>
    <style>
      .cls-1 {
        fill: #b4b4b4;
        fill-rule: evenodd;
      }
    </style>
  </defs>
  <path id="calendar_copy_2" data-name="calendar copy 2" class="cls-1" d="M3.477,3.045A0.668,0.668,0,0,0,4.138,2.37V0.678a0.661,0.661,0,1,0-1.321,0V2.37A0.668,0.668,0,0,0,3.477,3.045Zm5.047,0A0.668,0.668,0,0,0,9.185,2.37V0.678a0.661,0.661,0,1,0-1.321,0V2.37A0.668,0.668,0,0,0,8.524,3.045ZM11.468,0.98H10.25a0.54,0.54,0,0,0,0,1.079H10.94V4.253H1.055V2.059H1.744a0.54,0.54,0,0,0,0-1.079H0.526A0.534,0.534,0,0,0,0,1.519v8.936A0.535,0.535,0,0,0,.526,11H11.468A0.535,0.535,0,0,0,12,10.455V1.519A0.534,0.534,0,0,0,11.468.98ZM1.055,9.915V5.063H10.94V9.915H1.055Zm4.12-7.856H6.819a0.54,0.54,0,0,0,0-1.079H5.175A0.54,0.54,0,0,0,5.175,2.059Z"/>
</svg>
