<svg xmlns="http://www.w3.org/2000/svg" width="23" height="20" viewBox="0 0 23 20">
  <defs>
    <style>
      .cls-1 {
        fill: #61900b;
        fill-rule: evenodd;
      }
    </style>
  </defs>
  <path id="contact" class="cls-1" d="M-1,17.6V5.374A5.465,5.465,0,0,1-.824,4.732,2.138,2.138,0,0,1,1.216,3.41q3.578,0,7.157,0H8.529c0-.065,0-0.113,0-0.16,0-.695-0.005-1.39,0-2.085a2.142,2.142,0,0,1,1.682-2.1C10.32-.962,10.43-0.979,10.538-1h0.383a5.522,5.522,0,0,1,.644.164,2.129,2.129,0,0,1,1.363,1.988c0.008,0.707,0,1.413,0,2.12V3.409h7.287a2.2,2.2,0,0,1,1.269.359,2.151,2.151,0,0,1,.974,1.894q0,5.331,0,10.662c0,0.367,0,.735,0,1.1a2.137,2.137,0,0,1-1.5,2.022c-0.166.052-.34,0.077-0.51,0.114H1.011A0.906,0.906,0,0,0,.92,19.54a2.109,2.109,0,0,1-1.8-1.447A4.573,4.573,0,0,1-1,17.6Zm11.726,0.487h9.419c0.076,0,.152,0,0.227-0.007a0.659,0.659,0,0,0,.6-0.555A1.666,1.666,0,0,0,21,17.247q0-4.672,0-9.345c0-.759,0-1.517,0-2.276a0.694,0.694,0,0,0-.748-0.75q-3.674,0-7.348,0a0.108,0.108,0,0,0-.118.085,2.21,2.21,0,0,1-4.088.034,0.16,0.16,0,0,0-.18-0.119q-3.608,0-7.217,0c-0.048,0-.1,0-0.144,0A0.672,0.672,0,0,0,.5,5.39a1.319,1.319,0,0,0-.03.308q0,5.781,0,11.562a1.61,1.61,0,0,0,.015.227,0.653,0.653,0,0,0,.54.579,1.505,1.505,0,0,0,.286.017h9.419ZM10,2.667q0,0.695,0,1.389a1.794,1.794,0,0,0,.013.215,0.671,0.671,0,0,0,.653.6,0.692,0.692,0,0,0,.778-0.539,1.369,1.369,0,0,0,.023-0.274q0-1.383,0-2.767a1.76,1.76,0,0,0-.012-0.2A0.667,0.667,0,0,0,10.8.478a0.685,0.685,0,0,0-.772.515A1.239,1.239,0,0,0,10,1.278C9.994,1.74,10,2.2,10,2.667Zm-4.95,8.957A2.366,2.366,0,0,1,3.831,8.7,2.4,2.4,0,0,1,6.149,7.154,2.366,2.366,0,0,1,8.327,9a2.294,2.294,0,0,1-1.36,2.618A3.919,3.919,0,0,1,10,15.815H9.854q-3.931,0-7.861,0c-0.111,0-.136-0.032-0.139-0.14a3.848,3.848,0,0,1,.408-1.958,4.028,4.028,0,0,1,2.7-2.064c0.023-.006.046-0.01,0.069-0.017A0.059,0.059,0,0,0,5.045,11.624ZM15.9,7.816q1.358,0,2.715,0a1.2,1.2,0,0,1,.619.148,0.654,0.654,0,0,1,.366.59,0.617,0.617,0,0,1-.379.579,1.356,1.356,0,0,1-.535.142c-1.858.01-3.716,0.007-5.574,0.005a1.053,1.053,0,0,1-.618-0.192,0.636,0.636,0,0,1-.019-1.064,1.113,1.113,0,0,1,.7-0.207Q14.536,7.818,15.9,7.816Zm0.9,4.4H15.063a1.288,1.288,0,0,1-.679-0.156,0.647,0.647,0,0,1-.009-1.152,1.139,1.139,0,0,1,.6-0.161q1.831,0,3.661,0a1.116,1.116,0,0,1,.665.2,0.637,0.637,0,0,1,.009,1.065,1.206,1.206,0,0,1-.747.206H16.8Zm0.115,1.469h1.723a1.129,1.129,0,0,1,.637.171,0.642,0.642,0,0,1,0,1.125,1.061,1.061,0,0,1-.578.167c-1.2,0-2.392,0-3.588,0a0.73,0.73,0,0,1,.006-1.46c0.6-.006,1.2,0,1.806,0h0Z"/>
</svg>
