<svg xmlns="http://www.w3.org/2000/svg" width="20" height="20" viewBox="0 0 20 20">
  <defs>
    <style>
      .cls-1 {
        fill: #61900b;
        fill-rule: evenodd;
      }
    </style>
  </defs>
  <path id="Фигура_861" data-name="Фигура 861" class="cls-1" d="M-0.81,17.894V16.416q0-4.269,0-8.539c0-1.91-.009-3.82,0-5.73A2.083,2.083,0,0,1,1.259.016C2.69,0,4.12,0,5.551,0c1.4,0,2.8.009,4.2,0.013a2.066,2.066,0,0,1,2.032,1.836c0.051,0.68.036,1.366,0.038,2.05,0,1.81,0,3.62,0,5.43,0,0.041.005,0.082,0.009,0.143h0.6c1.436,0,2.872,0,4.308-.005a2.378,2.378,0,0,1,1.559.5,2.31,2.31,0,0,1,.888,1.9c0,1.72,0,3.441-.007,5.161a7.764,7.764,0,0,1-.044,1.1,2.266,2.266,0,0,1-1.952,1.838C16.751,20,16.312,20,15.876,20c-2.672,0-5.345,0-8.017,0A2.317,2.317,0,0,1,5.535,18.01,0.109,0.109,0,0,0,5.4,17.9c-0.594,0-1.189,0-1.783,0l-4.34,0C-0.744,17.9-.765,17.9-0.81,17.894Zm6.315-2.1V15.6c0-1.162,0-2.325,0-3.488A4.62,4.62,0,0,1,5.541,11.4,2.262,2.262,0,0,1,7.656,9.485c0.588-.031,1.178-0.011,1.767-0.013H9.7V2.123H1.312V15.791H5.506Zm6.317,2.087h5.26c0-.33,0-0.649,0-0.969a0.482,0.482,0,0,0-.172-0.422,2.778,2.778,0,0,0-.684-0.4,5.007,5.007,0,0,0-3.648.088,2.791,2.791,0,0,0-.6.375,0.426,0.426,0,0,0-.155.278C11.811,17.168,11.822,17.515,11.822,17.878Zm4.2-4.719a1.575,1.575,0,1,0-1.559,1.569A1.575,1.575,0,0,0,16.024,13.159ZM2.353,8.422V6.337h2.1V8.422h-2.1ZM6.565,6.33H8.652V8.42H6.565V6.33ZM2.353,12.646H4.445v2.089H2.353V12.646Zm0-7.389V3.177H4.447V5.256H2.355Zm6.3-2.079V5.262H6.565V3.178H8.659Zm-6.3,8.4V9.5H4.448v2.083H2.356Z"/>
</svg>
