<svg xmlns="http://www.w3.org/2000/svg" width="24" height="21" viewBox="0 0 24 21">
  <defs>
    <style>
      .cls-1 {
        fill: #61900b;
        fill-rule: evenodd;
      }
    </style>
  </defs>
  <path id="cherk-list" class="cls-1" d="M0,3.938c0.024-.226.043-0.452,0.074-0.677A4.781,4.781,0,0,1,.8,1.172,2.475,2.475,0,0,1,2.466.044,4.448,4.448,0,0,1,3.211.005Q9.714,0,16.217,0A2.123,2.123,0,0,1,16.9.175a3.716,3.716,0,0,1,2.528,2.851,3.951,3.951,0,0,1,.061.741c0.018,0.713.027,1.426,0.036,2.139a0.213,0.213,0,0,1-.046.141q-0.7.707-1.414,1.407a0.3,0.3,0,0,1-.047.028c0-.06,0-0.107,0-0.153C18.013,6.114,18,4.9,18,3.686a2.125,2.125,0,0,0-.809-1.717A2.045,2.045,0,0,0,15.86,1.5c-0.7,0-1.4-.02-2.094-0.019Q8.94,1.485,4.115,1.5c-0.25,0-.5,0-0.751.013A1.51,1.51,0,0,1,4.4,2.985q0.043,5.372.075,10.744C4.49,15.466,4.494,17.2,4.5,18.937a0.523,0.523,0,0,0,.4.473,4.065,4.065,0,0,0,.536.051c0.824,0.014,1.649.028,2.474,0.028q4.158,0,8.316-.008c0.432,0,.865-0.026,1.3-0.064a0.467,0.467,0,0,0,.452-0.5c0.015-.264.023-0.529,0.026-0.794,0.01-1.023.016-2.046,0.026-3.068a0.222,0.222,0,0,1,.044-0.142c0.473-.479.949-0.953,1.44-1.444a1.015,1.015,0,0,1,.012.1C19.511,15.29,19.493,17,19.5,18.713a2.259,2.259,0,0,1-1.9,2.225,9.581,9.581,0,0,1-1.162.036q-2.29.013-4.58,0.019c-0.048,0-.1.008-0.145,0.013H10.8c-0.052,0-.1-0.013-0.157-0.013q-2.725-.018-5.449-0.032a2.12,2.12,0,0,1-.776-0.149A2.229,2.229,0,0,1,3,18.8c0.008-.444-0.016-0.888-0.017-1.332q-0.01-6.032-.016-12.064c0-.055,0-0.11,0-0.177-0.178,0-.337,0-0.5,0q-0.9-.02-1.8-0.043A0.636,0.636,0,0,1,.062,4.8C0.039,4.75.017,4.7,0,4.647V3.938ZM24,7.606a1.423,1.423,0,0,1-.416.678c-0.232.228-.478,0.442-0.707,0.653l-2.625-2.62c0.32-.287.646-0.593,0.989-0.88a1.061,1.061,0,0,1,1.3.086c0.352,0.368.724,0.717,1.082,1.078A1.351,1.351,0,0,1,24,7.215V7.606Zm-4.287-.692,2.594,2.641,0.04-.02c-0.026.029-.052,0.058-0.08,0.086Q19.4,12.46,16.53,15.3a2.959,2.959,0,0,1-.89.631c-0.831.367-1.655,0.751-2.484,1.121a1.924,1.924,0,0,1-.466.14,0.616,0.616,0,0,1-.636-0.8c0.478-1.07.969-2.134,1.458-3.2a0.779,0.779,0,0,1,.157-0.216q2.982-3,5.968-5.989C19.656,6.965,19.678,6.947,19.715,6.914Zm-4.249,8.1,0.026-.05-1.249-1.211a1.1,1.1,0,0,0-.081.126c-0.2.433-.394,0.865-0.586,1.3a0.13,0.13,0,0,0,.028.111c0.108,0.116.225,0.224,0.334,0.34a0.107,0.107,0,0,0,.147.027c0.35-.165.7-0.324,1.053-0.485C15.247,15.124,15.356,15.07,15.466,15.018ZM13.494,6.735c0.775,0.013,1.55.031,2.326,0.036a0.7,0.7,0,0,1,.653.572,0.716,0.716,0,0,1-.4.789,1.163,1.163,0,0,1-.408.06q-1.812.018-3.624,0.025c-0.29,0-.579-0.009-0.869-0.023a0.712,0.712,0,0,1-.588-1.006A0.664,0.664,0,0,1,11.2,6.765c0.763,0,1.526,0,2.289,0C13.494,6.756,13.494,6.745,13.494,6.735Zm-6,7.93c0.221-.214.435-0.425,0.655-0.631,0.146-.136.3-0.261,0.448-0.4a0.722,0.722,0,0,1,.9,1.116c-0.5.493-.993,1-1.5,1.494a0.718,0.718,0,0,1-1.015.015,11.981,11.981,0,0,1-.84-0.869A0.619,0.619,0,0,1,6.1,14.64a0.7,0.7,0,0,1,.675-0.382,0.839,0.839,0,0,1,.464.2C7.324,14.523,7.4,14.592,7.492,14.665ZM7.5,7.142c0.315-.3.627-0.6,0.953-0.89a1.069,1.069,0,0,1,.4-0.235,0.683,0.683,0,0,1,.732.3,0.713,0.713,0,0,1,0,.8,2.621,2.621,0,0,1-.291.345q-0.588.587-1.186,1.165a2.571,2.571,0,0,1-.277.221,0.55,0.55,0,0,1-.665.016A3.7,3.7,0,0,1,6.092,7.8,0.683,0.683,0,0,1,6.2,6.985a0.673,0.673,0,0,1,.8-0.172A5.55,5.55,0,0,1,7.5,7.142Zm0,3.753c0.332-.31.67-0.623,1-0.939a0.672,0.672,0,0,1,.687-0.175,0.72,0.72,0,0,1,.4,1.093,2.489,2.489,0,0,1-.291.345q-0.605.606-1.221,1.2a1.954,1.954,0,0,1-.239.19,0.562,0.562,0,0,1-.666.014,3.684,3.684,0,0,1-1.075-1.071A0.683,0.683,0,0,1,6.2,10.74,0.676,0.676,0,0,1,7,10.567,5.643,5.643,0,0,1,7.5,10.895Zm7.52-.4c-0.495.494-.973,0.972-1.454,1.448a0.165,0.165,0,0,1-.108.037c-0.75-.007-1.5-0.012-2.251-0.028a0.709,0.709,0,0,1-.675-0.6,0.75,0.75,0,0,1,.438-0.8,0.564,0.564,0,0,1,.2-0.04q1.89-.02,3.78-0.035A0.575,0.575,0,0,1,15.018,10.5Z"/>
</svg>
