<svg xmlns="http://www.w3.org/2000/svg" width="12" height="10" viewBox="0 0 12 10">
  <defs>
    <style>
      .cls-1 {
        fill: #61900b;
        fill-rule: evenodd;
      }
    </style>
  </defs>
  <path id="Фигура_1188" data-name="Фигура 1188" class="cls-1" d="M12.312,0.94c-0.007.036-.013,0.073-0.021,0.108a0.735,0.735,0,0,1-.209.362L7.952,5.516,4.57,8.877a0.737,0.737,0,0,1-1.065,0L0.264,5.654l-0.72-.716a0.722,0.722,0,0,1,0-1.058q0.505-.5,1.013-1.007a0.73,0.73,0,0,1,1.05,0Q2.8,4.061,4,5.253a0.315,0.315,0,0,1,.031.041l0.04-.037L8.493,0.862Q9.257,0.1,10.021-.655A0.731,0.731,0,0,1,10.89-.788a0.793,0.793,0,0,1,.178.133c0.343,0.337.684,0.678,1.025,1.017A0.7,0.7,0,0,1,12.306.8a0.2,0.2,0,0,0,.007.028V0.94Z"/>
</svg>
