<svg xmlns="http://www.w3.org/2000/svg" width="23" height="22" viewBox="0 0 23 22">
  <defs>
    <style>
      .cls-1 {
        fill: #61900b;
        fill-rule: evenodd;
      }
    </style>
  </defs>
  <path id="calendar" class="cls-1" d="M11.256,21.374H1.155A1.836,1.836,0,0,1-.732,19.513c-0.005-1.661,0-3.323,0-4.984q0-5.508,0-11.017A1.832,1.832,0,0,1,.773,1.65a2.633,2.633,0,0,1,.489-0.033c0.5,0,1,0,1.493,0,0.167,0,.237.032,0.23,0.22-0.015.431-.01,0.863,0,1.294a1.514,1.514,0,0,0,2.978.348A2.5,2.5,0,0,0,6.016,2.92c0.008-.367.01-0.735,0-1.1-0.006-.165.053-0.2,0.209-0.2,1.382,0.005,2.764,0,4.146,0h5.867c0.248,0,.248,0,0.25.25,0,0.46-.014.922,0.021,1.38a1.51,1.51,0,0,0,3.01-.1c0.01-.46.011-0.921,0.008-1.381a0.123,0.123,0,0,1,.15-0.151c0.58,0,1.16-.01,1.739.006a1.845,1.845,0,0,1,1.835,1.9q0,2.912,0,5.823,0,5.045,0,10.09a1.849,1.849,0,0,1-1.611,1.921,1.457,1.457,0,0,1-.244.017H11.256ZM11.261,6.061H0.986c-0.253,0-.253,0-0.253.262q0,6.539,0,13.079a0.433,0.433,0,0,0,.519.515l18.022,0c0.679,0,1.358,0,2.038,0a0.416,0.416,0,0,0,.469-0.463c0-.082-0.007-0.163-0.007-0.245q0-2.99,0-5.979,0-2.02,0-4.038,0-1.443,0-2.885c0-.245-0.006-0.246-0.254-0.246H11.261Zm7.472-4.444c0,0.513.008,1.025,0,1.537a0.648,0.648,0,0,1-.433.6,0.733,0.733,0,0,1-1.027-.687c0-.984-0.006-1.969,0-2.953a0.714,0.714,0,0,1,.742-0.74,0.7,0.7,0,0,1,.724.736c0.008,0.5,0,1,0,1.5h0ZM5.231,1.6c0,0.483,0,.967,0,1.45a0.732,0.732,0,1,1-1.463.006q0-1.459,0-2.917A0.712,0.712,0,0,1,4.506-.62,0.708,0.708,0,0,1,5.23.132C5.233,0.621,5.231,1.11,5.231,1.6Zm-1.3,12.679c-0.416,0-.831,0-1.247,0a0.365,0.365,0,0,1-.42-0.417q0-.874,0-1.748A0.357,0.357,0,0,1,2.67,11.7q1.264,0,2.529,0a0.36,0.36,0,0,1,.411.407q0,0.874,0,1.748a0.366,0.366,0,0,1-.433.42H3.931v0Zm4.869,0c-0.416,0-.831,0-1.247,0a0.359,0.359,0,0,1-.412-0.406q0-.883,0-1.766a0.359,0.359,0,0,1,.413-0.4q1.264,0,2.529,0a0.36,0.36,0,0,1,.406.4q0.006,0.891,0,1.783a0.361,0.361,0,0,1-.406.4c-0.427,0-.854,0-1.282,0v0ZM3.939,18.386c-0.416,0-.831,0-1.247,0a0.369,0.369,0,0,1-.428-0.427q0-.874,0-1.748a0.362,0.362,0,0,1,.4-0.405q1.273,0,2.546,0a0.365,0.365,0,0,1,.4.4q0.006,0.892,0,1.783a0.358,0.358,0,0,1-.408.393c-0.421,0-.843,0-1.264,0v0ZM8.822,7.594c0.416,0,.831,0,1.247,0a0.364,0.364,0,0,1,.422.415q0,0.865,0,1.73a0.385,0.385,0,0,1-.447.435q-1.22,0-2.44,0A0.389,0.389,0,0,1,7.14,9.708c0-.565,0-1.131,0-1.7a0.368,0.368,0,0,1,.434-0.42H8.822v0ZM8.817,18.384c-0.421,0-.843,0-1.264,0a0.362,0.362,0,0,1-.413-0.422q0-.856,0-1.713a0.383,0.383,0,0,1,.45-0.444q1.229,0,2.458,0a0.38,0.38,0,0,1,.442.437q0,0.856,0,1.713a0.374,0.374,0,0,1-.444.431c-0.41,0-.819,0-1.229,0v0ZM13.7,14.279H12.441a0.36,0.36,0,0,1-.418-0.415q0-.873,0-1.748a0.357,0.357,0,0,1,.418-0.413h2.493a0.362,0.362,0,0,1,.428.423q0.006,0.866,0,1.73a0.362,0.362,0,0,1-.428.423c-0.41,0-.819,0-1.229,0v0Zm4.855,0c-0.421,0-.842,0-1.264,0a0.343,0.343,0,0,1-.395-0.382q-0.005-.908,0-1.817a0.341,0.341,0,0,1,.384-0.375q1.281,0,2.563,0a0.343,0.343,0,0,1,.386.391q0,0.9,0,1.8a0.347,0.347,0,0,1-.393.385c-0.427,0-.854,0-1.281,0v0Zm-4.873-6.69c0.392,0,.784,0,1.176,0a0.4,0.4,0,0,1,.5.482q0,0.83,0,1.66a0.377,0.377,0,0,1-.446.446q-1.229,0-2.457,0a0.374,0.374,0,0,1-.436-0.438q0-.865,0-1.73a0.357,0.357,0,0,1,.419-0.413c0.415,0,.831,0,1.246,0V7.587Zm4.887,0.007c0.409,0,.819,0,1.228,0a0.362,0.362,0,0,1,.434.43q0,0.864,0,1.729a0.363,0.363,0,0,1-.415.42q-1.246,0-2.492,0A0.368,0.368,0,0,1,16.9,9.746q0-.873,0-1.747a0.351,0.351,0,0,1,.408-0.4C17.732,7.591,18.153,7.594,18.574,7.594ZM13.691,18.386c-0.409,0-.819,0-1.229,0a0.368,0.368,0,0,1-.44-0.43q0-.864,0-1.729a0.368,0.368,0,0,1,.432-0.422q1.237,0,2.474,0a0.368,0.368,0,0,1,.432.424q0.006,0.874,0,1.747a0.351,0.351,0,0,1-.406.408c-0.421,0-.842,0-1.264,0v0Z"/>
</svg>
