<svg xmlns="http://www.w3.org/2000/svg" width="23" height="16" viewBox="0 0 23 16">
  <defs>
    <style>
      .cls-1 {
        fill: #61900b;
        fill-rule: evenodd;
      }
    </style>
  </defs>
  <path id="delivery" class="cls-1" d="M8.016,13.345a3.119,3.119,0,0,0-1.368-2.193,3.005,3.005,0,0,0-1.923-.53,3.148,3.148,0,0,0-2.916,2.729H0.052a0.829,0.829,0,0,1-.891-0.89q0-6.188,0-12.376A0.827,0.827,0,0,1,0-.807c0.057,0,.113,0,0.17,0H11.429a1.839,1.839,0,0,1,.339.024,0.8,0.8,0,0,1,.659.73,1.93,1.93,0,0,1,.007.194q0,6.133,0,12.266a1.426,1.426,0,0,1-.019.279,0.806,0.806,0,0,1-.838.666q-1.734,0-3.468,0C8.081,13.35,8.053,13.347,8.016,13.345ZM4.937,5.911a0.331,0.331,0,0,1-.051-0.027q-0.809-.8-1.616-1.6a0.372,0.372,0,0,0-.345-0.139A0.858,0.858,0,0,0,2.58,4.3C2.347,4.5,2.13,4.711,1.911,4.921a0.39,0.39,0,0,0-.1.448,1.136,1.136,0,0,0,.24.357Q3.281,6.964,4.525,8.188a0.485,0.485,0,0,0,.218.121,0.583,0.583,0,0,0,.562-0.216Q7.444,5.956,9.581,3.816a1.027,1.027,0,0,0,.165-0.209,0.494,0.494,0,0,0-.079-0.633C9.5,2.8,9.33,2.622,9.165,2.443a0.494,0.494,0,0,0-.688-0.076,1.626,1.626,0,0,0-.19.17Q6.656,4.166,5.027,5.8A1.291,1.291,0,0,0,4.937,5.911Zm15.476,7.435a3.131,3.131,0,0,0-6.207-.007,0.846,0.846,0,0,1-.852-0.65,1.042,1.042,0,0,1-.029-0.253q0-4.4,0-8.8a0.81,0.81,0,0,1,.509-0.834,0.979,0.979,0,0,1,.355-0.069c1.347,0,2.693,0,4.04,0a1.043,1.043,0,0,1,.761.3,5.811,5.811,0,0,1,.572.645q0.947,1.274,1.873,2.564a3.813,3.813,0,0,1,.714,1.531,1.875,1.875,0,0,1,.027.338q0,2.136,0,4.271a1.521,1.521,0,0,1-.032.338,0.772,0.772,0,0,1-.723.619C21.086,13.36,20.753,13.346,20.413,13.346Zm-4.43-5.395H20.69a1.435,1.435,0,0,0-.07-0.205,3.04,3.04,0,0,0-.212-0.368Q19.47,6.059,18.525,4.746A0.553,0.553,0,0,0,18.048,4.5H16.114c-0.043,0-.085.005-0.131,0.008V7.951ZM4.919,15.843a2.047,2.047,0,1,1,2.039-2.065A2.056,2.056,0,0,1,4.919,15.843Zm12.387,0A2.047,2.047,0,1,1,19.352,13.8,2.059,2.059,0,0,1,17.306,15.843Z"/>
</svg>
