<svg xmlns="http://www.w3.org/2000/svg" width="30" height="20" viewBox="0 0 30 20">
  <path id="delivery" class="cls-1" d="M0,12.571c0.015-.015.031-0.03,0.044-0.046a0.478,0.478,0,0,1,.388-0.193H6.438a0.5,0.5,0,0,1,.49.5,0.493,0.493,0,0,1-.49.5H0.432a0.478,0.478,0,0,1-.384-0.187C0.033,13.134.016,13.117,0,13.1V12.571ZM4.254,1.26V1.35q0,1.414,0,2.832,0,1.741,0,3.479c0,0.413.009,0.824,0,1.236a0.613,0.613,0,0,1-.637.6A0.625,0.625,0,0,1,3.028,8.87q0-1.663,0-3.329,0-.53,0-1.062,0-1.927.007-3.856A0.622,0.622,0,0,1,3.639,0H19.2a0.611,0.611,0,0,1,.622.46,0.791,0.791,0,0,1,.025.2c0,0.71,0,1.422,0,2.131v0.1h0.1q2.519,0,5.038,0a0.613,0.613,0,0,1,.413.149l2.963,2.517c0.458,0.389.915,0.78,1.375,1.166A0.7,0.7,0,0,1,30,7.3c0,0.514,0,1.029-.006,1.544q0,1.072-.011,2.146-0.007,1.431-.015,2.861T29.95,16.693a0.624,0.624,0,0,1-.505.674,0.614,0.614,0,0,1-.109.008H28.1a0.625,0.625,0,0,1-.112-1.239,1.991,1.991,0,0,1,.337-0.009c0.115,0,.23,0,0.345,0a0.052,0.052,0,0,0,.063-0.065c0-.16,0-0.321,0-0.481,0-.439,0-0.878,0-1.318q0.007-1.5.015-3,0.005-1.089.011-2.176c0-.487,0-0.974.012-1.462A0.187,0.187,0,0,0,28.7,7.466q-1.775-1.5-3.547-3.011c-0.107-.091-0.213-0.184-0.323-0.272a0.2,0.2,0,0,0-.118-0.043c-1.594,0-3.188,0-4.782-.005-0.072,0-.088.024-0.088,0.1q0,5.907,0,11.818c0,0.081.027,0.094,0.1,0.093,0.384,0,.769,0,1.153,0a0.607,0.607,0,0,1,.595.563,0.623,0.623,0,0,1-.443.663,0.643,0.643,0,0,1-.159.023H13.6a0.626,0.626,0,0,1-.021-1.249h4.943c0.1,0,.1,0,0.1-0.1V1.26H4.254ZM21.063,8.994c0-.841,0-1.682,0-2.523A0.651,0.651,0,0,1,21.3,5.929a0.553,0.553,0,0,1,.358-0.134q1.59,0,3.18,0a0.543,0.543,0,0,1,.375.148q0.933,0.86,1.865,1.723a0.591,0.591,0,0,1,.19.449q0,1.728,0,3.456a0.612,0.612,0,0,1-.607.621H21.671a0.6,0.6,0,0,1-.6-0.593c-0.007-.63,0-1.259,0-1.89Q21.063,9.352,21.063,8.994Zm1.223,1.944c0.035,0,.061,0,0.087,0h3.583a0.073,0.073,0,0,0,.091-0.091q0-1.19,0-2.38A0.151,0.151,0,0,0,26,8.35C25.537,7.928,25.08,7.5,24.62,7.083a0.176,0.176,0,0,0-.11-0.041q-1.072,0-2.144,0c-0.026,0-.052,0-0.079,0v3.894ZM9.563,21.01a2.823,2.823,0,0,1,.016-5.645A2.824,2.824,0,0,1,9.563,21.01Zm0-4.392a1.571,1.571,0,0,0,0,3.142A1.572,1.572,0,0,0,9.566,16.618ZM24.514,21.01a2.822,2.822,0,0,1,.015-5.644A2.824,2.824,0,0,1,24.514,21.01Zm0-4.392a1.571,1.571,0,0,0,0,3.142A1.572,1.572,0,0,0,24.513,16.618ZM3.188,9.968c0.933,0,1.865,0,2.8,0,0.844,0,1.689.009,2.533,0.015A2.156,2.156,0,0,1,8.79,10a0.52,0.52,0,0,1,.434.575,0.526,0.526,0,0,1-.506.491q-1.56-.007-3.121-0.018L3.63,11.032c-0.375,0-.749,0-1.124,0A1.487,1.487,0,0,1,2.178,11a0.537,0.537,0,0,1,.129-1.051c0.294,0,.588,0,0.881,0V9.968ZM4.254,16.14H5.469a0.615,0.615,0,0,1,.624.565,0.624,0.624,0,0,1-.524.679,0.46,0.46,0,0,1-.088.006c-0.612,0-1.223,0-1.835,0a0.615,0.615,0,0,1-.615-0.629q0-1.147,0-2.3a0.623,0.623,0,0,1,.578-0.624,0.614,0.614,0,0,1,.636.55,1.173,1.173,0,0,1,.008.134q0,0.757,0,1.514v0.1Z"/>
</svg>
