<svg xmlns="http://www.w3.org/2000/svg" width="16" height="14" viewBox="0 0 16 14">
  <defs>
    <style>
      .cls-1 {
        fill: #9e9e9e;
        fill-rule: evenodd;
      }
    </style>
  </defs>
  <path id="home" class="cls-1" d="M-0.008,6.335A0.932,0.932,0,0,1,.357,5.574l2.7-2.049Q5.235,1.874,7.412.221a0.848,0.848,0,0,1,1.161,0q1.782,1.357,3.568,2.707,1.748,1.326,3.5,2.652a0.93,0.93,0,0,1,.337.961,0.875,0.875,0,0,1-.725.679,0.8,0.8,0,0,1-.615-0.173L12.672,5.554,9.088,2.835C8.748,2.577,8.407,2.321,8.069,2.06a0.1,0.1,0,0,0-.146,0Q5.349,4.016,2.772,5.969c-0.474.36-.946,0.722-1.423,1.079a0.776,0.776,0,0,1-.9.068A0.885,0.885,0,0,1-.008,6.335Zm11.746,5.842V11.413c0-.9,0-1.79,0-2.684a0.856,0.856,0,1,1,1.707,0q0,2.18,0,4.362a0.879,0.879,0,0,1-.868.9H3.411a0.88,0.88,0,0,1-.864-0.908q0-2.171,0-4.342a0.875,0.875,0,0,1,.882-0.94,0.858,0.858,0,0,1,.819.831C4.267,9,4.255,9.359,4.255,9.719q0,1.179,0,2.359c0,0.031,0,.062.007,0.1h7.475Z"/>
</svg>
