<?xml version="1.0" encoding="utf-8"?>
<!-- Generator: Adobe Illustrator 23.0.1, SVG Export Plug-In . SVG Version: 6.00 Build 0)  -->
<svg version="1.1" id="Слой_1" xmlns="http://www.w3.org/2000/svg" xmlns:xlink="http://www.w3.org/1999/xlink" x="0px" y="0px"
	 viewBox="0 0 35 26" style="enable-background:new 0 0 35 26;" xml:space="preserve">
<style type="text/css">
	.st0{fill-rule:evenodd;clip-rule:evenodd;fill:#201508;}
</style>
<polygon class="st0" points="12.1,14.9 12.1,11 35,11 35,15 12.1,15 "/>
<polygon class="st0" points="12.1,25.3 12.1,21.3 35,21.3 35,25.3 "/>
<rect x="12.1" y="0.7" class="st0" width="22.9" height="3.9"/>
<path class="st0" d="M6.8,3.3c0,1.7-1.5,3.2-3.3,3.3c-1.9,0-3.4-1.4-3.4-3.3S1.6,0,3.4,0l0,0C5.3,0,6.8,1.4,6.8,3.3z"/>
<path class="st0" d="M6.8,22.7c0,1.8-1.5,3.3-3.4,3.3S0,24.6,0,22.7c0-1.8,1.5-3.3,3.4-3.3l0,0C5.3,19.5,6.8,20.9,6.8,22.7L6.8,22.7
	z"/>
<path class="st0" d="M3.4,9.7c1.9,0,3.3,1.4,3.3,3.3c0.1,1.7-1.4,3.2-3.3,3.2s-3.3-1.4-3.3-3.3l0,0C0.1,11.2,1.6,9.7,3.4,9.7z"/>
</svg>
