<svg xmlns="http://www.w3.org/2000/svg" width="21" height="20" viewBox="0 0 21 20">
  <defs>
    <style>
      .cls-1 {
        fill: #61900b;
        fill-rule: evenodd;
      }
    </style>
  </defs>
  <path id="order" class="cls-1" d="M0,8.974A0.281,0.281,0,0,0,.02,8.927,1.056,1.056,0,0,1,.789,8.073c0.421-.123.847-0.229,1.278-0.344,0.015,0.078.025,0.152,0.044,0.224a1.083,1.083,0,0,0,1.346.767Q4.8,8.372,6.137,8.009a1.1,1.1,0,0,0,.719-1.461C6.847,6.524,6.84,6.5,6.828,6.465,7.07,6.4,7.307,6.337,7.544,6.277a6.351,6.351,0,0,1,.7-0.168,1.039,1.039,0,0,1,1.152.779c0.178,0.649.337,1.3,0.5,1.954q0.992,3.894,1.983,7.788a1.1,1.1,0,0,1-.816,1.422q-2.288.6-4.574,1.213c-0.866.23-1.731,0.462-2.6,0.691a1.074,1.074,0,0,1-1.378-.828Q1.279,14.289.047,9.449C0.031,9.385.016,9.322,0,9.259V8.974ZM1.4,10.4l2.166,8.5,7.287-1.937-2.166-8.5Zm8.929,8.749c0.257-.068.513-0.14,0.771-0.2a2.172,2.172,0,0,0,1.009-.474,1.953,1.953,0,0,0,.608-2.028q-1.233-4.869-2.479-9.734a1.928,1.928,0,0,0-2.38-1.425c-0.387.1-.772,0.207-1.16,0.3a0.272,0.272,0,0,1-.17-0.018,1.447,1.447,0,0,0-.821-0.149,0.144,0.144,0,0,1-.156-0.055,1.542,1.542,0,0,0-1.69-.608,1.614,1.614,0,0,0-1.2,1.373,0.151,0.151,0,0,1-.055.1,1.578,1.578,0,0,0-.71.586c0-.037-0.009-0.062-0.009-0.087,0-.686-0.01-1.371,0-2.056A2.2,2.2,0,0,1,2.35,3.344C3.093,2.386,3.84,1.433,4.584.477A1.168,1.168,0,0,1,5.558,0q5.886,0,11.772,0a1.152,1.152,0,0,1,.957.467c0.75,0.96,1.5,1.918,2.248,2.883A2.17,2.17,0,0,1,21,4.7q0,6.492,0,12.984a1.444,1.444,0,0,1-1.2,1.478,1.548,1.548,0,0,1-.277.017H10.333Zm9.477-15.8c-0.235-.3-0.46-0.583-0.677-0.872a0.226,0.226,0,0,0-.206-0.1q-2.613,0-5.227,0a0.455,0.455,0,0,1-.1,0,0.1,0.1,0,0,1-.063-0.041c-0.092-.267-0.18-0.535-0.275-0.821h5.117C18.205,1.294,18.041,1.1,17.893.89A0.71,0.71,0,0,0,17.261.577q-5.822.006-11.643,0c-0.039,0-.079,0-0.118,0a0.574,0.574,0,0,0-.452.235c-0.075.1-.151,0.194-0.227,0.291L4.5,1.52H9.524C9.5,1.569,9.482,1.6,9.464,1.631,9.335,1.849,9.2,2.065,9.077,2.286a0.167,0.167,0,0,1-.168.1q-1.832,0-3.663,0c-0.443,0-.886,0-1.328,0a0.179,0.179,0,0,0-.127.053C3.561,2.721,3.338,3.01,3.114,3.3a0.426,0.426,0,0,0-.028.051H19.807ZM2.5,7.669a0.638,0.638,0,0,1,.447-0.624c0.109-.035.221-0.059,0.33-0.09a0.33,0.33,0,0,0,.246-0.418,0.764,0.764,0,0,1,.532-0.925,0.745,0.745,0,0,1,.927.539,0.318,0.318,0,0,0,.412.241c0.094-.022.186-0.049,0.279-0.073a0.641,0.641,0,0,1,.8.473,0.655,0.655,0,0,1-.478.8c-0.464.127-.93,0.248-1.4,0.372-0.427.113-.854,0.228-1.282,0.339A0.645,0.645,0,0,1,2.5,7.669ZM4.262,6.68a0.325,0.325,0,0,0,.321-0.325,0.332,0.332,0,0,0-.326-0.333,0.324,0.324,0,0,0-.318.327A0.319,0.319,0,0,0,4.262,6.68ZM2.631,11.887a0.25,0.25,0,0,1-.25-0.258c-0.053-.209-0.037-0.3.074-0.359a0.848,0.848,0,0,1,.172-0.057L7.861,9.825a0.226,0.226,0,0,1,.332.194c0.088,0.329.059,0.38-.265,0.466l-5.2,1.38C2.688,11.876,2.649,11.883,2.631,11.887Zm6.092,0.226a0.224,0.224,0,0,1-.191.253l-1.117.3-4.19,1.111a0.238,0.238,0,0,1-.352-0.209c-0.007-.028-0.015-0.056-0.021-0.084a0.233,0.233,0,0,1,.2-0.336l5.3-1.41a0.231,0.231,0,0,1,.337.2C8.7,12,8.714,12.071,8.724,12.112ZM7.841,13.7a0.539,0.539,0,0,1,.06.005,0.4,0.4,0,0,1,.22.414,0.214,0.214,0,0,1-.179.225c-0.468.127-.937,0.251-1.406,0.376l-2.886.766a0.231,0.231,0,0,1-.339-0.2c-0.009-.035-0.019-0.071-0.027-0.106a0.229,0.229,0,0,1,.188-0.323L7.762,13.71C7.79,13.7,7.818,13.7,7.841,13.7Zm0.348,2.427a0.225,0.225,0,0,1-.2.247q-0.527.142-1.055,0.282l-2.784.738a0.24,0.24,0,0,1-.358-0.212c-0.01-.039-0.019-0.078-0.028-0.117a0.222,0.222,0,0,1,.175-0.294l1.076-.286,2.763-.734c0.233-.062.31-0.018,0.371,0.22C8.168,16.025,8.18,16.085,8.188,16.122Z"/>
</svg>
