<?xml version="1.0" encoding="utf-8"?>
<!-- Generator: Adobe Illustrator 23.0.1, SVG Export Plug-In . SVG Version: 6.00 Build 0)  -->
<svg version="1.1" id="Слой_1" xmlns="http://www.w3.org/2000/svg" xmlns:xlink="http://www.w3.org/1999/xlink" x="0px" y="0px"
	 viewBox="0 0 24 24" style="enable-background:new 0 0 24 24;" xml:space="preserve">
<style type="text/css">
	.st0{fill-rule:evenodd;clip-rule:evenodd;fill:#61900B;}
</style>
<path class="st0" d="M1,11h22c0.6,0,1,0.4,1,1l0,0c0,0.6-0.4,1-1,1H1c-0.6,0-1-0.4-1-1l0,0C0,11.4,0.4,11,1,11z"/>
<path class="st0" d="M12,0c0.6,0,1,0.4,1,1v22c0,0.6-0.4,1-1,1s-1-0.4-1-1V1C11,0.4,11.4,0,12,0z"/>
</svg>
