<svg xmlns="http://www.w3.org/2000/svg" width="20" height="20" viewBox="0 0 20 20">
  <defs>
    <style>
      .cls-1 {
        fill: #61900b;
        fill-rule: evenodd;
      }
    </style>
  </defs>
  <path id="type" class="cls-1" d="M20,3.594c-0.041.189-.071,0.381-0.126,0.565a2.357,2.357,0,0,1-.586.973l-4.42-4.42A2.235,2.235,0,0,1,15.726.166C15.94,0.094,16.165.054,16.385,0h0.47a0.3,0.3,0,0,0,.056.018A2.423,2.423,0,0,1,18.347.7c0.324,0.315.642,0.636,0.958,0.959a2.292,2.292,0,0,1,.574.972C19.932,2.813,19.961,3,20,3.186V3.594ZM18.358,6.035L7.775,16.617,3.381,12.223,13.958,1.64ZM13.969,3.414L5.146,12.237,6,13.087l8.818-8.823ZM2.8,13.486l3.71,3.71L0.02,20,0,19.983Z"/>
</svg>
