<?xml version="1.0" encoding="utf-8"?>
<!-- Generator: Adobe Illustrator 23.0.1, SVG Export Plug-In . SVG Version: 6.00 Build 0)  -->
<svg version="1.1" id="Слой_1" xmlns="http://www.w3.org/2000/svg" xmlns:xlink="http://www.w3.org/1999/xlink" x="0px" y="0px"
	 viewBox="0 0 23 23" style="enable-background:new 0 0 23 23;" xml:space="preserve">
<style type="text/css">
	.st0{fill:#61900B;}
</style>
<g id="phone">
	<path class="st0" d="M6.3,0l0,2C6.7,2,7,2.3,7,2.6c0.1,0.9,0.3,1.8,0.6,2.7c0.1,0.2,0,0.5-0.2,0.7L6,7.5L4.9,8.6l0.7,1.3
		c1.7,3.2,4.3,5.8,7.5,7.5l1.3,0.7l1.1-1.1l1.5-1.5c0.1-0.1,0.3-0.2,0.5-0.2c0.1,0,0.1,0,0.2,0c0.9,0.3,1.8,0.5,2.7,0.6
		c0.4,0,0.6,0.3,0.6,0.7v3.6c0,0,0,0,0,0.1c0,0.4-0.3,0.6-0.7,0.6c0,0,0,0-0.1,0c-2.4-0.2-4.6-0.8-6.8-1.9c-2.1-1-4-2.3-5.6-4
		c-1.6-1.6-3-3.5-4-5.6C2.8,7.4,2.2,5.1,2,2.8l0,0l0,0C2,2.3,2.3,2,2.7,2l3.6,0L6.3,0 M6.3,0C6.3,0,6.3,0,6.3,0L2.7,0
		C1.2,0,0,1.2,0,2.7c0,0,0,0,0,0C0,2.8,0,2.9,0,3c0.2,2.6,0.9,5.1,2.1,7.5c1.1,2.3,2.6,4.4,4.4,6.2c1.8,1.8,3.9,3.3,6.2,4.4
		c2.3,1.1,4.9,1.8,7.5,2c0.1,0,0.2,0,0.3,0c1.4,0,2.6-1.1,2.7-2.5c0-0.1,0-0.2,0-0.3v-3.6c0-1.4-1-2.5-2.4-2.7
		c-0.8-0.1-1.6-0.3-2.4-0.5c-0.3-0.1-0.5-0.1-0.8-0.1c-0.7,0-1.4,0.3-1.9,0.8l-1.5,1.5c-2.8-1.6-5.1-3.9-6.7-6.7l1.5-1.5
		c0.7-0.7,1-1.7,0.7-2.7C9.3,4,9.1,3.2,9,2.4C8.9,1,7.7,0,6.3,0L6.3,0z"/>
</g>
</svg>
