<svg xmlns="http://www.w3.org/2000/svg" width="20" height="20" viewBox="0 0 20 20">
  <defs>
    <style>
      .cls-1 {
        fill: #61900b;
        fill-rule: evenodd;
      }
    </style>
  </defs>
  <path id="tipe" class="cls-1" d="M20,4.511c-0.017.086-.035,0.172-0.052,0.258A2.432,2.432,0,0,1,19.3,6c-0.286.295-.58,0.582-0.87,0.873A0.392,0.392,0,0,1,18.4,6.9L13.09,1.593c0.119-.115.248-0.236,0.374-0.359,0.174-.171.344-0.347,0.519-0.517a2.465,2.465,0,0,1,1.454-.7A0.6,0.6,0,0,0,15.511,0h0.445a0.592,0.592,0,0,0,.074.019A2.454,2.454,0,0,1,17.5.73q0.881,0.875,1.757,1.756a2.447,2.447,0,0,1,.663,1.16C19.949,3.77,19.973,3.9,20,4.022V4.511ZM0,19.955c0.075-.286.152-0.57,0.224-0.857q0.634-2.529,1.265-5.06c0.009-.036.019-0.071,0.032-0.12a1.857,1.857,0,0,0,1.13.6,2.5,2.5,0,0,0,2.837,2.831,4.709,4.709,0,0,0,.2.6,4.732,4.732,0,0,0,.353.535c-0.126.032-.267,0.07-0.409,0.105l-5.49,1.372a1.042,1.042,0,0,0-.1.037ZM13.942,4.261l1.785,1.791c-0.164.16-.335,0.323-0.5,0.491Q10.746,11.019,6.268,15.5a2.27,2.27,0,0,1-.591.5,1.249,1.249,0,0,1-1.439-2c0.6-.609,1.209-1.211,1.814-1.815q3.9-3.9,7.809-7.81A0.915,0.915,0,0,0,13.942,4.261ZM12.183,2.515l0.888,0.891c-0.2.2-.405,0.4-0.609,0.6Q7.929,8.535,3.4,13.067a0.664,0.664,0,0,1-.435.22,0.623,0.623,0,0,1-.611-0.36,0.608,0.608,0,0,1,.112-0.691c0.16-.169.328-0.331,0.493-0.5L11.605,3.1C11.8,2.9,11.991,2.707,12.183,2.515Zm4.408,4.393,0.894,0.9c-0.016.017-.036,0.042-0.059,0.065L7.813,17.489a0.622,0.622,0,0,1-.656.189A0.6,0.6,0,0,1,6.724,17.2a0.613,0.613,0,0,1,.193-0.585q0.692-.69,1.382-1.382,4.112-4.11,8.223-8.222A0.641,0.641,0,0,0,16.591,6.908Z"/>
</svg>
