<svg xmlns="http://www.w3.org/2000/svg" width="16" height="16" viewBox="0 0 16 16">
  <defs>
    <style>
      .cls-1 {
        fill: #a9a9a9;
        fill-rule: evenodd;
      }
    </style>
  </defs>
  <path id="Фигура_1154" data-name="Фигура 1154" class="cls-1" d="M7.716,15.014l-0.332-.029a7.7,7.7,0,0,1-3.619-1.233,7.491,7.491,0,0,1-2.64-2.924C1.118,10.814,1.111,10.8,1.1,10.775l1.315-.623a6.12,6.12,0,0,0,5.868,3.394,6.037,6.037,0,0,0,4.807-2.629l-1.358-.377L14.9,7.515c0.011,0.033.021,0.057,0.027,0.081l1.034,4c0.008,0.03.021,0.059,0.032,0.088v0.032c-0.45-.124-0.9-0.246-1.349-0.373a0.09,0.09,0,0,0-.123.046,7.433,7.433,0,0,1-1.661,1.9,7.586,7.586,0,0,1-4.243,1.7l-0.348.03H7.716ZM8.271,0.008l0.356,0.03a7.63,7.63,0,0,1,4.487,1.893,7.415,7.415,0,0,1,1.654,2.084C14.783,4.04,14.8,4.066,14.811,4.1l-1.3.649A6.13,6.13,0,0,0,7.46,1.495,5.99,5.99,0,0,0,2.888,4.1L4.257,4.482,1.08,7.51C1.041,7.364,1.006,7.233.972,7.1L0.019,3.408A0.7,0.7,0,0,0-.009,3.335V3.3C0.44,3.427.89,3.55,1.338,3.677a0.094,0.094,0,0,0,.128-0.051A7.621,7.621,0,0,1,7.368.038c0.116-.009.232-0.02,0.348-0.03H8.271Z"/>
</svg>
