<svg xmlns="http://www.w3.org/2000/svg" width="18" height="18" viewBox="0 0 18 18">
  <defs>
    <style>
      .cls-1 {
        fill: #61900b;
        fill-rule: evenodd;
      }
    </style>
  </defs>
  <path id="time" class="cls-1" d="M9.484,0c0.221,0.025.443,0.047,0.664,0.076A8.7,8.7,0,0,1,13.7,1.364c0.206,0.13.4,0.274,0.6,0.412,0.033,0.023.064,0.049,0.087,0.067L12.912,3.312a7.048,7.048,0,0,0-3.22-1.191c0,0.219,0,.425,0,0.631a0.713,0.713,0,0,1-.119.413A0.691,0.691,0,0,1,8.309,2.8c0-.219,0-0.438,0-0.678A6.788,6.788,0,0,0,4.493,3.761,6.865,6.865,0,0,0,2.117,8.306H2.239c0.179,0,.359,0,0.538,0a0.692,0.692,0,0,1,.006,1.383c-0.179,0-.359,0-0.538,0H2.135a6.884,6.884,0,0,0,6.172,6.182c0-.149,0-0.3,0-0.444A1.821,1.821,0,0,1,8.349,15a0.675,0.675,0,0,1,.74-0.472,0.687,0.687,0,0,1,.6.673c0,0.223,0,.445,0,0.669A6.9,6.9,0,0,0,15.874,9.7c-0.028,0-.057-0.007-0.085-0.007H15.22a0.693,0.693,0,1,1-.007-1.385H15.9c-0.064-.367-0.115-0.718-0.189-1.064a4.955,4.955,0,0,0-.444-1.228,0.113,0.113,0,0,1,0-.1c0.484-.491.972-0.979,1.474-1.482C16.836,4.6,16.924,4.752,17,4.91A8.913,8.913,0,0,1,18,8.85,8.807,8.807,0,0,1,15.713,15a8.665,8.665,0,0,1-5.333,2.89,8.771,8.771,0,0,1-7.047-1.9,8.775,8.775,0,0,1-3.09-4.975,8.9,8.9,0,0,1-.22-1.7A0.519,0.519,0,0,0,0,9.219V8.772A0.768,0.768,0,0,0,.022,8.656,8.988,8.988,0,0,1,.237,7.009,8.884,8.884,0,0,1,3.953,1.545,8.713,8.713,0,0,1,7.975.056C8.16,0.035,8.345.019,8.529,0H9.484ZM8.945,8.767c0.233-.238.46-0.474,0.692-0.706q3.2-3.2,6.394-6.4a0.805,0.805,0,0,1,.635-0.284,0.656,0.656,0,0,1,.616.437,0.649,0.649,0,0,1-.151.739c-0.527.531-1.057,1.058-1.586,1.587Q12.577,7.11,9.609,10.079a0.884,0.884,0,0,1-.47.3,0.7,0.7,0,0,1-.579-0.153L6.506,8.585C6.038,8.21,5.57,7.838,5.1,7.461A0.691,0.691,0,0,1,5.8,6.281a1.048,1.048,0,0,1,.246.157q1.406,1.127,2.81,2.256Z"/>
</svg>
